<?xml version="1.0" standalone="no"?>
<!DOCTYPE svg PUBLIC "-//W3C//DTD SVG 1.1//EN" "http://www.w3.org/Graphics/SVG/1.1/DTD/svg11.dtd" >
<svg xmlns="http://www.w3.org/2000/svg">
<metadata>Generated by IcoMoon</metadata>
<defs>
<font id="ccicon" horiz-adv-x="1024">
<font-face units-per-em="1024" ascent="960" descent="-64" />
<missing-glyph horiz-adv-x="1024" />
<glyph unicode="&#x20;" horiz-adv-x="512" d="" />
<glyph unicode="&#xe900;" glyph-name="academic-alert" d="M44.256 380.992l-44.256 43.072 502.432 504.832 409.12-421.088-44.256-43.072-366.048 376.832zM412.704-8.96h-296.672v537.12h61.024v-476.128h174.656v241.632h190.208v-62.208h-129.184v-240.448zM959.392-32.896h-415.104q-26.304 0-44.864 19.136t-18.528 45.472v318.208q0 26.304 18.528 45.472t44.864 19.136h415.104q26.304 0 45.472-19.136t19.136-45.472v-318.208q0-26.304-19.136-45.472t-45.472-19.136zM544.288 352.288q-2.4 0-2.4-2.4v-318.208q0-3.584 2.4-3.584h415.104q2.4 0 2.4 3.584v318.208q0 2.4-2.4 2.4h-415.104zM961.792 309.216h62.208v-8.384h-62.208v8.384zM751.264 122.624l-172.256 113.632 33.504 51.424 139.968-92.128 232.064 139.968 32.288-52.64z" />
<glyph unicode="&#xe901;" glyph-name="accessible" d="M196.544 473.184q49.376-101.792 147.136-188.48t165.28-86.688q60.48 0 143.616 64.512t139.584 151.168h2.016v4.032q18.144 27.2 30.24 53.408 65.504 39.296 72.576 97.76 8.064 66.528-56.448 131.040-31.232 114.912-123.456 187.456t-208.128 72.576q-116.928 0-209.632-75.072t-122.976-192q-57.44-62.496-49.376-123.968 7.040-56.448 69.536-95.744zM244.928 525.6q-46.368 23.168-49.376 51.392-2.016 12.096 4.032 27.2 22.176 0.992 45.344 6.048v-84.672zM508.96 266.592q-30.24 0-87.168 42.848t-106.336 104.32h190.496v69.536h28.224v-69.536h174.368q-48.384-61.472-106.848-104.32t-92.736-42.848zM508.96 891.456q97.76 0 174.368-65.504t96.768-165.28l5.024 0.992-1.024-2.016q15.104-13.088 31.232-36.8t13.088-45.856q-2.016-22.176-34.272-42.336v86.688h-260.032v-69.536h-28.224v69.536h-222.752q35.264 15.104 59.456 42.336 22.176-7.040 46.368-11.072t63.008-3.52 76.608 9.056 84.672 32.768 89.184 62.496l-46.368 51.392q-42.336-39.296-90.72-60.48t-83.136-25.184-70.048 0.512-47.872 8.576-19.648 7.040l-28.224 13.088-16.128-26.208q-17.12-29.216-56.448-41.312 25.184 92.736 99.264 151.68t165.792 58.976zM983.68 85.152q-229.792 94.752-469.664 94.752-78.624 0-156.736-10.592t-130.016-24.192-99.776-30.752-64-25.184l-44.352-22.176v-131.040h985.696v140.096zM935.296 4.544h-846.624v20.16q37.28 17.12 85.152 33.76t145.12 34.784 195.040 18.144q214.688 0 421.28-81.632v-25.184z" />
<glyph unicode="&#xe902;" glyph-name="activity" d="M512.544-64q-104.064 0-198.688 40.64t-163.616 109.088-109.632 163.072-40.64 198.688 40.64 198.688 109.632 163.616 163.616 109.632 198.688 40.64 198.688-40.64 163.072-109.632 109.088-163.616 40.64-198.688-40.64-198.688-109.088-163.072-163.072-109.088-198.688-40.64zM512.544 887.648q-119.648 0-220.928-58.976t-160.288-160.288-58.976-220.928 58.976-220.928 160.288-160.288 220.928-58.976 220.928 58.976 160.288 160.288 58.976 220.928-58.976 220.928-160.288 160.288-220.928 58.976zM324.992 602.72h515.328v-71.232h-515.328v71.232zM191.456 459.136h654.464v-71.232h-654.464v71.232zM281.6 576.544q0-15.040-10.56-25.6t-26.144-10.56-26.144 10.56-10.56 25.6 10.56 26.144 26.144 11.136 26.144-11.136 10.56-26.144zM191.456 316.672h654.464v-71.232h-654.464v71.232z" />
<glyph unicode="&#xe903;" glyph-name="add-all" d="M805.184 628.512h75.488v-142.208h143.328v-76.576h-143.328v-142.208h-75.488v142.208h-143.328v76.576h143.328v142.208zM0 486.304h277.888v277.888h76.576v-277.888h277.888v-76.576h-277.888v-277.888h-76.576v277.888h-277.888v76.576z" />
<glyph unicode="&#xe904;" glyph-name="add-event" d="M742.4 387.2c99.2 0 182.4-83.2 182.4-182.4s-83.2-182.4-182.4-182.4-182.4 83.2-182.4 182.4 83.2 182.4 182.4 182.4zM742.4 448c-134.4 0-243.2-108.8-243.2-243.2s108.8-243.2 243.2-243.2 243.2 108.8 243.2 243.2-108.8 243.2-243.2 243.2v0zM768 230.4h80v-44.8h-80v-89.6h-48v89.6h-80v44.8h80v83.2h48v-83.2zM483.2 60.8h-332.8v534.4h678.4v-115.2c35.2-12.8 70.4-32 96-60.8v320c0 51.2-44.8 96-96 96 0 0-44.8 0-54.4 0v96h-96v-96h-384v96h-96v-96h-48c-54.4 0-96-44.8-96-96v-675.2c0-51.2 38.4-96 96-96h425.6c-35.2 25.6-67.2 57.6-92.8 92.8zM444.8 211.2c0 32 6.4 64 16 92.8h-217.6v-96l201.6 3.2c0-3.2 0 0 0 0zM729.6 499.2h-486.4v-96h275.2c51.2 57.6 128 96 211.2 96z" />
<glyph unicode="&#xe905;" glyph-name="add-folder, add-folder-line" d="M984.704 761.28h-527.712l-78.592 93.184-24.704 11.232h-314.4q-15.712 0-27.52-11.776t-11.776-28.64v-754.528q0-16.832 11.776-28.64t27.52-11.776h945.408q15.712 0 27.52 11.776t11.776 28.64v650.112q0 16.832-11.776 28.64t-27.52 11.776zM64 801.696h275.104l33.696-40.416h-308.768v40.416zM960 94.304h-896v602.944h376.128v1.12l1.12-1.12h518.752v-602.944zM318.88 351.456h159.424v-159.424h64v159.424h160.576v64h-160.576v160.576h-64v-160.576h-159.424v-64z" />
<glyph unicode="&#xe906;" glyph-name="add-task" d="M257.696 415.232l-30.528-29.376 165.024-168.416 282.56 274.656-30.528 30.528-250.912-245.248zM787.2 293.152q-74.016 0-126.592-52.544t-52.544-126.016 52.544-126.016 126.016-52.544q71.2 0 123.2 48.608 55.392 53.12 55.392 129.984 0 73.472-52 126.016t-126.016 52.544zM880.448 15.104q-39.552-37.312-93.824-37.312-56.512 0-96.64 40.128t-40.128 96.64 40.128 96.64 96.64 40.128 96.64-40.128 40.128-96.64q0-58.784-42.944-99.456zM808.128 203.872h-41.824v-67.808h-68.96v-42.944h68.96v-67.808h41.824v67.808h68.96v42.944h-68.96v67.808zM123.2 8.352v751.616h87.040v-114.144h481.472v114.144h87.040v-420.448q16.96 2.272 31.648 2.272t33.92-3.392v487.136h-152.576v3.392l-111.904 131.104h-254.304l-115.296-131.104v-3.392h-151.456v-882.72h561.728q-23.744 29.376-38.432 65.568h-458.88zM275.776 804.032l79.104 91.552h63.296v-115.296h65.568v115.296h65.568l77.984-91.552v-92.672h-352.64z" />
<glyph unicode="&#xe907;" glyph-name="add" d="M960 487.328h-408.672v408.672h-78.624v-408.672h-408.672v-78.624h408.672v-408.672h78.624v408.672h408.672v78.624z" />
<glyph unicode="&#xe908;" glyph-name="address, address-one-o, vcard" d="M918.464 268.352q0 2.24-1.696 3.936l-8.416 8.416t-17.408 12.928-32.576 14.048-48.832 14.592q-17.952 3.36-25.248 15.712t-6.176 27.52 5.6 28.064 10.112 21.888q11.232 17.952 19.648 51.104t9.536 71.296-20.768 68.48-66.816 37.056q-14.592 2.24-26.944 0-41.536-7.872-64.576-30.304t-27.52-49.952 0-57.824 13.472-52.768 19.072-37.056q5.6-8.992 10.656-21.344t6.752-27.52-7.296-27.52-30.304-16.832q-40.416-10.112-67.936-23.584t-35.36-21.344l-7.872-8.992v-77.472h400.832v77.472zM942.048 864.576h-860.064q-33.696 0-57.824-24.128t-24.128-57.824v-669.184q0-33.696 24.128-57.824t57.824-24.128h860.064q33.696 0 57.824 24.128t24.128 57.824v669.184q0 33.696-24.128 57.824t-57.824 24.128zM71.872 782.592q0 11.232 10.112 11.232h860.064q10.112 0 10.112-11.232v-669.184q0-11.232-10.112-11.232h-860.064q-10.112 0-10.112 11.232v669.184zM140.352 636.64h326.752v-70.752h-326.752v70.752zM140.352 452.48h326.752v-70.752h-326.752v70.752zM140.352 268.352h326.752v-70.752h-326.752v70.752z" />
<glyph unicode="&#xe909;" glyph-name="addressbook, cardcase" d="M942.784 960h-812.224q-26.72 0-46.272-19.008t-19.52-46.784v-83.264h-49.344v-70.944h179.904v70.944h-59.616v79.168h802.944v-884.192h-802.944v108.992h-70.944v-113.088q0-27.744 19.52-46.784t46.272-19.008h812.224q27.744 0 46.784 19.008t19.008 46.784v892.416q0 27.744-19.008 46.784t-46.784 19.008zM195.328 612.512h-59.616v94.592h-70.944v-94.592h-49.344v-69.92h179.904v69.92zM195.328 415.104h-59.616v100.768h-70.944v-100.768h-49.344v-70.944h179.904v70.944zM195.328 216.672h-59.616v97.664h-70.944v-97.664h-49.344v-69.92h179.904v69.92zM450.304 380.16q-39.072-9.248-66.304-22.112t-34.432-21.088l-7.2-8.224v-76.096h388.64v76.096q0 1.024-1.536 3.072t-8.224 8.736-16.96 12.352-31.36 13.376-47.808 13.888q-16.448 3.072-24.16 15.424t-6.176 26.72 5.664 27.232 9.248 21.088q11.296 18.496 19.52 50.368t9.248 68.384-20.064 66.304-64.256 35.968q-15.424 2.048-26.72 0-40.096-8.224-62.72-29.824t-26.72-47.808 0-56.032 13.376-51.392 18.496-35.968q6.176-8.224 10.272-20.064t6.176-26.72-6.688-26.72-29.312-16.96z" />
<glyph unicode="&#xe90a;" glyph-name="admin" d="M729.344 694.144q0 110.176-77.824 188.032t-187.52 77.824-187.52-77.824-77.824-188.032q0-78.848 43.456-144.544t114.24-97.056q-68.736-24.256-124.832-62.688t-89.952-78.336-59.648-85.92-37.408-81.888-18.208-71.776-7.584-49.024-1.024-20.224h51.552q0 7.072 1.024 21.216t9.088 51.552 21.728 73.28 43.456 81.376 70.24 82.4 106.144 69.248 146.56 47.52q108.16 2.016 184.992 79.36t76.832 185.504zM250.176 694.656q0 88.448 62.688 151.136t151.136 62.688 151.136-62.688 62.688-151.136-62.688-151.136-151.136-62.688-151.136 62.688-62.688 151.136zM818.304 545.536q-77.824 0-132.928-55.104t-55.104-132.928q0-35.392 13.152-68.736l-243.616-240.576v-112.192h108.16v62.688l69.76-2.016 2.016 72.768h63.68l112.192 110.176q30.336-11.104 62.688-11.104 77.824 0 132.928 55.584t55.104 133.44-55.104 132.928-132.928 55.104zM872.384 338.336q-29.824 0-51.040 21.216t-21.216 51.040 21.216 51.040 51.040 21.216 51.040-21.216 21.216-51.040-21.216-51.040-51.040-21.216z" />
<glyph unicode="&#xe90b;" glyph-name="announcement-editor" horiz-adv-x="1056" d="M738.272-50.528h-20.8q-11.552 0-21.952 3.456-25.408 8.096-41.024 29.472t-16.768 47.936q-31.2-21.952-69.312-11.552-19.648 5.792-34.656 21.952l-13.856 13.856q-23.104 24.256-23.104 58.912 1.152 26.56 17.344 47.36-8.096 0-17.344 3.456-26.56 6.944-43.328 29.472t-15.584 50.272v19.648q1.152 33.504 25.408 57.76 23.104 21.952 55.456 21.952-16.16 21.952-16.16 49.696 1.152 33.504 25.408 56.608l15.008 13.856q33.504 33.504 78.56 19.648 13.856-4.608 26.56-13.856 2.304 31.2 24.256 53.152 24.256 21.952 56.608 21.952h21.952q10.4 0 20.8-3.456 25.408-6.944 41.6-28.32t16.16-47.936q32.352 25.408 71.648 13.856 20.8-6.944 35.808-21.952l13.856-15.008q23.104-24.256 23.104-57.76-1.152-28.896-19.648-50.848 9.248 0 18.496-3.456 25.408-6.944 41.6-29.472t16.16-50.272l-1.152-19.648q0-33.504-25.408-56.608-21.952-21.952-53.152-23.104 15.008-20.8 15.008-48.512-1.152-33.504-25.408-56.608l-13.856-13.856q-34.656-32.352-79.712-19.648-15.008 4.608-26.56 13.856-2.304-31.2-25.984-53.728t-56.032-22.528zM634.304 114.688l20.8-11.552q12.704-8.096 26.56-12.704l23.104-6.944-2.304-52q0-12.704 11.552-16.16 3.456-1.152 4.608-1.152h19.648q6.944 0 12.128 4.608t5.216 11.552l1.152 52 23.104 5.792q13.856 4.608 26.56 11.552l21.952 10.4 30.048-31.2q2.304-3.456 6.944-4.608 9.248-2.304 16.16 3.456l13.856 13.856q5.792 5.792 5.792 12.704 0 5.792-4.608 11.552l-30.048 31.2 11.552 20.8q8.096 12.704 12.704 26.56l6.944 21.952 50.848-1.152q5.792 0 10.976 5.216t5.216 10.976v20.8q1.152 12.704-10.4 16.16h-4.608l-49.696 1.152-6.944 24.256q-3.456 15.008-10.4 28.896l-10.4 20.8 31.2 30.048q4.608 4.608 5.216 11.552t-5.216 12.704l-12.704 13.856q-3.456 3.456-8.096 4.608-8.096 2.304-15.008-4.608l-31.2-30.048-21.952 11.552q-12.704 8.096-27.744 12.704l-23.104 6.944 1.152 49.696q0 12.704-11.552 16.16-2.304 1.152-4.608 1.152h-19.648q-6.944 0-11.552-4.608t-4.608-11.552l-1.152-49.696-23.104-6.944q-13.856-3.456-26.56-10.4l-21.952-11.552-30.048 31.2q-2.304 3.456-6.944 4.608-9.248 3.456-16.16-3.456l-13.856-13.856q-4.608-4.608-4.608-11.552-1.152-6.944 4.608-12.704l28.896-31.2-11.552-20.8q-6.944-12.704-11.552-26.56l-8.096-23.104-50.848 1.152q-6.944 0-11.552-4.608t-5.792-11.552v-19.648q0-12.704 11.552-16.16 2.304-1.152 3.456-1.152l52-1.152 6.944-23.104q3.456-13.856 10.4-27.744l10.4-20.8-30.048-30.048q-4.608-4.608-5.216-11.552t4.032-11.552l13.856-13.856q3.456-3.456 6.944-4.608 9.248-2.304 16.16 3.456zM733.664 129.696q-48.512 0-83.2 34.656t-34.656 83.2 34.656 82.624 83.2 34.080 83.2-34.080 34.656-82.624-34.656-83.2-83.2-34.656zM733.664 299.52q-21.952 0-36.96-15.008t-15.008-36.96 15.008-37.536 36.96-15.584 37.536 15.584 15.584 37.536-15.584 36.96-37.536 15.008zM1056 485.536h-64.704q0 100.512-71.072 171.584t-171.584 71.040v64.704q127.104 0 217.216-90.112t90.112-217.216zM930.080 485.536h-64.704q0 48.512-34.080 82.624t-82.624 34.080v64.704q75.104 0 128.256-53.152t53.152-128.256zM301.536 253.312h-301.536v465.6h301.536v-465.6zM65.856 318.016h171.008v336.224h-171.008v-336.224zM467.936 145.856q-8.096 0-16.16 3.456l-197.568 102.816q-17.344 9.248-17.344 28.896v390.528q0 18.496 15.008 27.744l382.432 236.864q16.16 10.4 32.352 1.152t16.16-28.896v-450.592q0-19.648-16.768-28.896t-32.928 1.152q-3.456 2.304-6.944 3.456-19.648 5.792-23.104 3.456l-17.344-17.344q-8.096-8.096-9.248-19.648 0-12.704 8.096-20.8l16.16-17.344q16.16-17.344 5.792-38.144-10.4-17.344-16.16-34.656-6.944-21.952-31.2-21.952h-33.504q-11.552 0-19.648-6.944-9.248-8.096-9.248-19.648v-25.408q-1.152-19.648 0-24.256 10.4-19.648-6.944-36.96-8.096-8.096-21.952-8.096zM301.536 300.704l130.56-68.16v9.248q1.152 38.144 28.896 64.704 26.56 26.56 64.704 26.56l12.704-1.152v2.304l-1.152 1.152q-26.56 27.744-25.408 65.856t28.896 64.704l17.344 17.344q24.256 23.104 60.064 18.496v348.928l-316.576-196.416v-353.536z" />
<glyph unicode="&#xe90c;" glyph-name="announcement-o" horiz-adv-x="1088" d="M858.546 628.538c-7.444 3.722-14.89 7.444-18.612 14.89-7.444 14.89-3.722 33.502 11.168 44.67l186.122 100.506c7.444 3.722 18.612 3.722 22.334 3.722 11.168-3.722 14.89-7.444 18.612-14.89 7.444-14.89 3.722-33.502-11.168-44.67l-186.122-100.506c-7.444-3.722-14.89-3.722-22.334-3.722zM858.546 271.184c-7.444-3.722-14.89-7.444-18.612-14.89-7.444-14.89-3.722-33.502 11.168-44.67l186.122-100.506c7.444-3.722 18.612-3.722 22.334-3.722 7.444 3.722 14.89 7.444 18.612 14.89 7.444 14.89 3.722 33.502-11.168 44.67l-186.122 100.506c-7.444 3.722-14.89 3.722-22.334 3.722zM888.326 416.36c-18.612 0-33.502 14.89-33.502 33.502s14.89 33.502 33.502 33.502h167.51c18.612 0 33.502-14.89 33.502-33.502s-14.89-33.502-33.502-33.502h-167.51zM731.984 900.278c-18.612 7.444-37.224 3.722-48.392-11.168-100.506-100.506-201.012-171.232-301.518-212.18l-11.168-3.722c-18.612-7.444-40.946-18.612-55.836-22.334h-271.738c-26.058 0-44.67-22.334-44.67-48.392v-294.074l137.73-286.628c3.722-14.89 26.058-29.78 40.946-29.78h160.066c26.058 0 44.67 18.612 44.67 44.67 0 3.722 0 14.89-3.722 18.612l-67.004 238.236h3.722c63.282-14.89 201.012-63.282 372.244-234.514 11.168-11.168 18.612-14.89 29.78-14.89 26.058 0 44.67 18.612 44.67 48.392v766.824c0 22.334-11.168 37.224-29.78 40.946zM694.76 803.494v-655.152c-111.674 104.228-230.792 178.678-353.632 212.18v227.070c7.444 3.722 18.612 7.444 26.058 7.444 11.168 3.722 22.334 7.444 33.502 11.168l11.168 3.722c104.228 48.392 193.568 111.674 282.906 193.568zM69.388 364.244v219.624h201.012v-219.624h-201.012zM192.228 62.726l-111.674 230.792h160.066l63.282-230.792h-111.674z" />
<glyph unicode="&#xe90d;" glyph-name="announcement" horiz-adv-x="1152" d="M905.225 637.509c-8.029 4.016-16.061 8.029-20.074 16.061-8.029 16.061-4.016 36.135 12.045 48.18l200.746 108.405c8.029 4.016 20.074 4.016 24.090 4.016 8.029-4.016 16.061-8.029 20.074-16.061 8.029-16.061 4.016-36.135-12.045-48.18l-200.746-108.405c-8.029-8.029-16.061-8.029-24.090-4.016zM905.225 248.059c-8.029-4.016-16.061-8.029-20.074-16.061-8.029-16.061-4.016-36.135 12.045-48.18l200.746-108.405c8.029-4.016 20.074-4.016 24.090-4.016 8.029 4.016 16.061 8.029 20.074 16.061 8.029 16.061 4.016 36.135-12.045 48.18l-200.746 108.405c-8.029 4.016-16.061 4.016-24.090 4.016zM937.344 404.641c-20.074 0-36.135 16.061-36.135 36.135s16.061 36.135 36.135 36.135h180.672c20.074 0 36.135-16.061 36.135-36.135s-16.061-36.135-36.135-36.135h-180.672zM278.894 649.554h-248.926c-16.061 0-32.119-16.061-32.119-36.135v-317.18h281.045v353.315zM768.717 918.557c-12.045 4.016-24.090 4.016-32.119-8.029-136.508-136.508-256.958-204.762-333.241-232.868-20.074-8.029-36.135-16.061-52.193-20.074v-365.36c84.315-24.090 220.823-88.328 385.434-252.942 4.016-4.016 12.045-8.029 20.074-8.029 16.061 0 32.119 12.045 32.119 32.119v827.080c0 12.045-8.029 24.090-20.074 28.106zM375.254 19.207l-84.315 204.762h-236.881l96.36-228.852c4.016-12.045 12.045-20.074 24.090-20.074h172.643c16.061 0 32.119 12.045 32.119 32.119 0 4.016 0 8.029-4.016 12.045z" />
<glyph unicode="&#xe90e;" glyph-name="anonymous" d="M753.408 682.208q0 114.816-81.504 196.288t-196.288 81.504-196.288-81.504-81.504-196.288q0-84.064 46.112-152.736t120.96-101.472q-72.768-25.632-131.2-65.6t-94.816-82.016-63.040-90.72-39.456-86.112-19.488-75.328-7.68-51.776-1.024-21.024h52.288q0 10.24 1.024 26.144t9.728 55.36 23.072 76.864 46.112 84.576 74.304 85.088 111.2 71.232 153.76 50.752q113.792 1.024 193.728 82.016t79.936 194.752zM475.616 457.728q-93.28 0-159.392 66.112t-66.112 158.88 66.112 158.88 159.392 66.112 159.392-66.112 66.112-158.88-66.112-158.88-159.392-66.112zM971.2 410.080q-44.576 40.48-118.4 40.48-69.696 0-112.256-37.408t-51.776-108.128l64.576-8.192q8.192 53.312 33.824 77.888 26.656 24.608 66.624 24.608 40.992 0 69.184-27.168t28.192-64.064q0-19.488-9.728-36.384t-42.016-45.6-44.576-43.040q-16.384-20.512-24.608-39.968-9.216-26.656-9.216-63.552v-18.464h59.456q1.024 36.896 5.12 53.312t13.824 29.216 39.456 40.48q45.088 38.944 60.48 67.648 16.384 27.68 16.384 60.48 0 57.408-44.576 97.888zM816.96 6.72h70.72v-70.72h-70.72v70.72z" />
<glyph unicode="&#xe90f;" glyph-name="app" d="M782.016 404v10.016h-4.992l-220.992 483.008h-84l-416-898.016h83.008l156.992 340.992h434.016l156-340.992h82.016zM695.008 413.984h-364l183.008 395.008z" />
<glyph unicode="&#xe910;" glyph-name="approve" d="M867.264 377.472h-220l-22.112 172.64q42.112 28.416 66.304 73.696t24.224 96.832q0 85.248-61.056 146.304t-146.304 61.056-146.304-61.056-61.056-146.304q0-54.752 27.904-102.624t75.264-75.264l-22.112-165.248h-226.304q-28.416 0-48.416-20t-20-48.416v-177.888q0-28.416 20-48.96t48.416-20.512h711.584q28.416 0 48.96 20.512t20.512 48.96v177.888q0 28.416-20.512 48.416t-48.96 20zM486.208 588l-27.36 10.528q-36.832 15.776-59.488 48.96t-22.624 73.152q0 54.752 38.432 93.152t93.152 38.432 93.152-38.432 38.432-93.152q0-37.888-19.488-69.472t-53.152-48.416l-23.168-11.584 36.832-288.416 280-2.112v-163.168l-698.944 1.056 1.056 164.224h285.248zM98.848 43.776h825.248v-75.776h-825.248v75.776z" />
<glyph unicode="&#xe911;" glyph-name="approved" d="M416.096 207.424l-229.92 251.232 56.064 51.584 177.216-192.896 343.2 343.2 54.944-54.944zM512-64q-103.744 0-198.528 40.384t-163.744 108.8-109.344 163.2-40.384 199.072 40.384 199.072 109.344 163.2 163.744 109.344 198.528 40.928 198.528-40.928 163.744-109.344 109.344-163.2 40.384-199.072-40.384-199.072-109.344-163.2-163.744-108.8-198.528-40.384zM512 882.624q-118.336 0-218.72-58.336t-158.688-158.688-58.336-218.144 58.336-218.144 158.688-158.688 218.72-58.336 218.72 58.336 158.688 158.688 58.336 218.144-58.336 218.144-158.688 158.688-218.72 58.336z" />
<glyph unicode="&#xe912;" glyph-name="archive" d="M720.992 872h-404l-260.992-369.984v-478.016h912v476.992zM680.992 797.984l180.992-271.008h-195.008v-152.992h-264.992v152.992h-238.016l191.008 271.008h326.016zM740.992 300v152.992h152.992v-355.008h-764v355.008h198.016v-152.992h412.992z" />
<glyph unicode="&#xe913;" glyph-name="area-chart" d="M990.176 144.256h-921.952v641.92q0 14.24-10.080 24.32t-24.32 10.080-24.32-10.080-10.080-24.32v-710.752h990.784q13.056 0 23.136 10.080t10.080 24.32-9.504 24.32-23.744 10.080zM776.608 534.624l-186.304-71.2-264.608 274.080-192.224-202.912v-316.8h768.896z" />
<glyph unicode="&#xe914;" glyph-name="arrow-bottom" d="M826.432 760.992l-317.248-304.48-311.584 304.48v-188.8l311.584-293.824 317.248 293.824v188.8zM200.416 264.896h623.168v-129.888h-623.168v129.888z" />
<glyph unicode="&#xe915;" glyph-name="arrow-down" d="M837.728 680.992v-162.304l-323.424-303.712-328.064 303.712v162.304l328.064-315.296z" />
<glyph unicode="&#xe916;" glyph-name="back, arrow-left" d="M740.896 128h-159.424l-298.368 317.728 298.368 322.272h159.424l-309.76-322.272z" />
<glyph unicode="&#xe917;" glyph-name="goto, arrow-right" d="M288.096 135.008h155.936l291.84 310.784-291.84 315.232h-155.936l302.976-315.232z" />
<glyph unicode="&#xe918;" glyph-name="arrow-top" d="M197.568 135.008l317.248 304.48 311.584-304.48v188.096l-311.584 294.56-317.248-293.824v-188.8zM200.416 760.992h623.168v-129.888h-623.168v129.888z" />
<glyph unicode="&#xe919;" glyph-name="arrow-up" d="M837.728 215.008v162.304l-323.424 303.712-328.064-303.712v-162.304l328.064 315.296z" />
<glyph unicode="&#xe91a;" glyph-name="assessment-editor" d="M440.352-26.208h-358.272q-33.888 0-57.984 24.096t-24.096 57.984v812.96q0 33.888 24.096 57.984t57.984 24.096h579.744q33.888 0 57.984-24.096t24.096-57.984v-214.976h-67.744v214.976q0 6.528-3.904 11.072t-10.432 4.576h-579.744q-6.528 0-10.432-4.576t-3.904-11.072v-812.96q0-6.528 3.904-10.432t10.432-3.904h358.272v-67.744zM212.352 595.232l-87.296 95.104 48.192 44.288 39.072-41.696 97.696 100.32 48.192-45.6zM358.272 728.096h260.544v-67.744h-260.576v67.744zM212.352 363.328l-87.296 95.104 48.192 45.6 39.072-43.008 97.696 100.32 48.192-45.6zM358.272 496.192h171.968v-66.432h-171.968v66.432zM212.352 131.424l-87.296 95.104 48.192 45.6 39.072-42.976 97.696 101.632 48.192-46.912zM358.272 264.32h78.176v-66.432h-78.176v66.432zM715.232-54.88h-23.456q-11.712 1.312-22.144 3.904-26.048 7.808-42.976 31.264t-16.928 50.816q-33.888-24.768-74.272-11.712-22.144 5.216-37.792 22.144l-14.336 15.648q-24.768 24.768-23.456 61.216 1.312 28.672 19.552 50.816-11.712 1.312-22.144 3.904-27.36 7.808-44.288 31.264t-15.648 52.096v22.144q1.312 35.168 26.048 58.624 24.768 24.768 59.936 24.768v0q-18.24 23.456-16.928 53.408 1.312 35.168 26.048 59.936l15.648 14.336q35.168 33.888 82.080 19.552 16.928-3.904 29.952-14.336 1.312 32.576 26.048 56.032 24.768 24.768 58.624 24.768l23.456-1.312q10.432 0 20.832-2.592 27.36-7.808 44.96-31.264t16.288-50.816q35.168 27.36 78.176 14.336 20.832-6.528 36.48-22.144l14.336-15.648q24.768-26.048 23.456-61.216 0-31.264-20.832-54.72 10.432 0 20.832-2.592 27.36-7.808 44.288-31.264t16.928-53.408l-1.312-20.832q-1.312-35.168-26.048-59.936-24.768-23.456-58.624-23.456 18.24-23.456 16.928-52.096-1.312-35.168-26.048-59.936l-15.648-14.336q-35.168-35.168-82.080-20.832-16.928 5.216-31.264 15.648 0-33.888-25.408-57.984t-59.264-24.096zM604.512 118.4l20.832-13.024q14.336-6.528 28.672-11.712l23.456-7.808-1.312-54.72q0-14.336 13.024-18.24h5.216l20.832-1.312q7.808 0 13.024 5.856t5.216 12.384l1.312 54.72 23.456 6.528q15.648 3.904 29.952 11.712l22.144 10.432 31.264-32.576q2.592-3.904 7.808-5.216 10.432-2.592 18.24 5.216l14.336 14.336q6.528 5.216 6.528 13.024t-5.216 13.024l-31.264 32.576 13.024 22.144q6.528 13.024 11.712 28.672l9.12 22.144 50.816-1.312q7.808 0 13.664 5.856t5.856 13.664v20.832q1.312 14.336-13.024 18.24h-3.904l-52.096 1.312-6.528 24.768q-3.904 15.648-11.712 31.264l-10.432 20.832 32.576 31.264q5.216 6.528 5.216 13.664t-5.216 13.664l-14.336 14.336q-2.592 3.904-7.808 5.216-10.432 2.592-18.24-3.904l-32.576-32.576-20.832 13.024q-15.648 7.808-31.264 13.024l-23.456 7.808 1.312 52.128q1.312 14.336-13.024 18.24h-24.768q-7.808 0-13.024-3.904-6.528-6.528-6.528-14.336l-1.312-52.096-23.456-6.528q-14.336-3.904-28.672-11.712l-22.144-10.432-31.264 32.576q-3.904 2.592-7.808 3.904-10.432 3.904-18.24-3.904l-14.336-14.336q-6.528-5.216-6.528-13.024t5.216-14.336l31.264-32.576-11.712-20.832q-7.808-14.336-13.024-29.952l-7.808-23.456-53.408 1.312q-7.808 0-13.664-5.216t-5.856-13.024v-20.832q0-14.336 13.024-18.24h3.904l54.72-1.312 6.528-24.768q3.904-14.336 11.712-28.672l10.432-22.144-31.264-29.952q-6.528-6.528-6.528-14.336t5.216-13.024l14.336-15.648q3.904-2.592 7.808-3.904 10.432-3.904 18.24 3.904zM710.016 136.64q-50.816 0-87.296 36.48t-36.48 87.296 36.48 87.296 87.296 36.48 87.296-36.48 36.48-87.296-36.48-87.296-87.296-36.48zM710.016 317.728q-23.456 0-40.384-16.928t-16.928-40.384 16.928-40.384 40.384-16.928 40.384 16.928 16.928 40.384-16.928 40.384-40.384 16.928z" />
<glyph unicode="&#xe91b;" glyph-name="assessment" d="M346.72 590.432l-90.048 98.112 51.072 47.040 40.32-44.352 99.456 104.832 49.728-47.040zM497.216 727.52h270.112v-68.544h-270.112v68.544zM346.72 99.936l-90.048 98.112 51.072 47.040 40.32-44.352 99.456 104.832 49.728-48.384zM497.216 237.024h270.112v-68.544h-270.112v68.544zM346.72 345.856l-90.048 98.112 51.072 45.696 40.32-43.008 99.456 103.488 49.728-47.040zM497.216 482.944h270.112v-69.888h-270.112v69.888zM835.872-64h-647.712q-28.224 0-48.384 20.16t-20.16 48.384v886.944q0 28.224 20.16 48.384t48.384 20.16h647.712q28.224 0 48.384-20.16t20.16-48.384v-886.944q0-28.224-20.16-48.384t-48.384-20.16zM188.128 891.456v-886.944h647.712v886.944h-647.712z" />
<glyph unicode="&#xe91c;" glyph-name="assignment-editor" d="M440.352-26.208h-358.272q-33.888 0-57.984 24.096t-24.096 57.984v812.96q0 33.888 24.096 57.984t57.984 24.096h427.328l234.496-195.424v-113.344h-66.432v82.080l-191.52 160.256h-403.872q-6.528 0-10.432-4.576t-3.904-11.072v-812.96q0-6.528 3.904-10.432t10.432-3.904h358.272v-67.744zM128.992 617.376h484.64v-66.432h-484.64v66.432zM128.992 346.368h313.984v-66.432h-313.984v66.432zM128.992 481.888h383.008v-66.432h-383.008v66.432zM128.992 210.88h394.752v-66.432h-394.752v66.432zM715.232-54.88h-23.456q-11.712 1.312-22.144 3.904-26.048 7.808-42.976 31.264t-16.928 50.816q-33.888-24.768-74.272-11.712-22.144 5.216-37.792 22.144l-14.336 15.648q-24.768 24.768-23.456 61.216 1.312 28.672 19.552 50.816-11.712 1.312-20.832 3.904-28.672 7.808-45.6 31.264t-15.648 52.096v22.144q1.312 35.168 26.048 58.624 24.768 24.768 59.936 24.768v0q-18.24 23.456-16.928 53.408 1.312 35.168 26.048 59.936l15.648 14.336q35.168 33.888 82.080 19.552 16.928-3.904 29.952-14.336 1.312 33.888 26.048 56.032 24.768 24.768 58.624 24.768l23.456-1.312q11.712 0 22.144-2.592 27.36-7.808 44.288-31.264t15.648-50.816q35.168 27.36 78.176 14.336 20.832-6.528 36.48-22.144l15.648-15.648q23.456-26.048 22.144-61.216 0-31.264-20.832-54.72 10.432 0 20.832-2.592 27.36-7.808 44.288-31.264t16.928-53.408l-1.312-20.832q0-35.168-26.048-59.936-24.768-23.456-58.624-23.456 18.24-23.456 16.928-52.096-1.312-35.168-26.048-59.936l-15.648-14.336q-35.168-35.168-82.080-20.832-16.928 5.216-31.264 15.648 0-33.888-25.408-57.984t-59.264-24.096zM604.512 118.4l20.832-13.024q14.336-7.808 28.672-11.712l23.456-7.808-1.312-54.72q0-14.336 13.024-18.24h5.216l20.832-1.312q7.808 0 13.024 5.856t5.216 12.384l1.312 54.72 23.456 6.528q15.648 3.904 29.952 11.712l22.144 10.432 31.264-32.576q2.592-3.904 7.808-5.216 10.432-2.592 18.24 5.216l14.336 14.336q6.528 5.216 6.528 13.024t-5.216 13.024l-31.264 32.576 13.024 22.144q6.528 13.024 11.712 28.672l9.12 22.144 50.816-1.312q7.808 0 13.664 5.216t5.856 13.024v22.144q1.312 14.336-13.024 18.24h-3.904l-52.096 1.312-6.528 23.456q-3.904 16.928-11.712 31.264l-10.432 22.144 32.576 31.264q5.216 5.216 5.856 13.024t-5.856 14.336l-14.336 14.336q-2.592 3.904-7.808 5.216-10.432 2.592-16.928-3.904l-33.888-32.576-20.832 13.024q-14.336 7.808-31.264 13.024l-23.456 7.808 1.312 52.128q1.312 13.024-13.024 16.928-1.312 1.312-3.904 1.312h-20.832q-7.808 0-13.024-5.216-6.528-5.216-6.528-13.024l-1.312-52.096-23.456-6.528q-14.336-3.904-28.672-11.712l-22.144-10.432-31.264 32.576q-2.592 2.592-7.808 3.904-10.432 3.904-18.24-3.904l-14.336-14.336q-6.528-6.528-6.528-14.336t5.216-13.024l31.264-32.576-11.712-20.832q-7.808-14.336-13.024-29.952l-7.808-23.456-53.408 1.312q-7.808 0-13.664-5.216t-5.856-13.024v-20.832q0-14.336 13.024-18.24 2.592-1.312 5.216-1.312h53.408l6.528-24.768q3.904-14.336 11.712-28.672l10.432-22.144-31.264-29.952q-6.528-6.528-6.528-14.336t5.216-13.024l14.336-15.648q3.904-2.592 7.808-3.904 10.432-3.904 18.24 3.904zM710.016 136.64q-50.816 0-87.296 36.48t-36.48 87.296 36.48 87.296 87.296 36.48 87.296-36.48 36.48-87.296-36.48-87.296-87.296-36.48zM710.016 317.728q-23.456 0-40.384-16.928t-16.928-40.384 16.928-40.384 40.384-16.928 40.384 16.928 16.928 40.384-16.928 40.384-40.384 16.928zM710.016 673.376h-256.64v243.616h66.432v-177.184h190.208v-66.432z" />
<glyph unicode="&#xe91d;" glyph-name="assignment" d="M329.056 74.496l25.408 198.208 472.608 463.712q19.072 19.072 47.008 19.072 38.112 0 68.608-30.496l47.008-48.288q29.216-30.496 29.216-68.608 0-27.936-19.072-47.008l-472.608-463.712zM396.384 252.352l-16.512-128.32 128.32 13.984 461.184 453.568q6.336 6.336 6.336 17.792 0 19.072-16.512 36.832l-48.288 48.288q-16.512 16.512-36.832 16.512-10.176 0-16.512-5.088zM804.192 672.864l142.304-144.832-30.496-30.496-142.304 144.832zM431.968 315.872l142.304-144.832-30.496-29.216-142.304 143.552zM815.648-64h-810.56v914.752h810.56v-166.432h-43.2v123.232h-724.16v-827.072h724.16v256.64h43.2v-301.088zM566.624 818.976l-50.816 96.544h-200.736l-39.392-95.296-39.392 16.512 49.536 123.232h256.64l62.24-120.704zM134.656 709.728h551.392v-43.2h-551.392v43.2zM134.656 572.512h541.216v-43.2h-541.216v43.2zM134.656 435.296h397.664v-43.2h-397.664v43.2zM134.656 298.080h255.36v-43.2h-255.36v43.2zM134.656 160.864h228.672v-43.2h-228.672v43.2z" />
<glyph unicode="&#xe91e;" glyph-name="assistant" d="M280.64 632.96q0-129.312 71.328-220.928t172.224-91.616 172.8 91.616 71.904 220.928-71.904 220.928-172.8 91.616-172.224-91.616-71.328-220.928zM438.368 252l12.768-46.4h115.968l17.408 40.576-17.408 40.576h-103.2zM930.048 172q-11.584-64.928-62.624-108.416t-118.304-43.488q-80.032 0-134.528 60.288-31.296-42.912-74.208-71.904v165.824h-56.832v-165.824q-151.904 105.536-126.4 311.968-6.944-1.152-18.56-4.064t-46.976-15.072-67.84-28.416-72.48-46.4-70.176-66.688-53.344-91.040-27.84-118.304h1024q-11.584 128.736-93.92 221.504zM591.424 205.632q0-66.112 46.4-112.48t111.904-46.4 111.904 46.4 46.4 111.904-46.4 111.904-111.904 46.4-111.904-46.4-46.4-111.328zM760.736 276.352l85.824-70.752-85.824-70.752v47.552h-109.024v47.552h109.024v46.4z" />
<glyph unicode="&#xe91f;" glyph-name="attachment, attachment-one-o, attachment-three-o, attachment-two-o" d="M400.992-56q-133.984 0-253.92 123.776-59.968 62.528-88.032 128.864t-28.064 112.288 14.688 90.592 24.896 59.968 16.576 22.976l436.384 438.912q22.976 12.768 53.6 21.056t69.536 8.928 82.944-17.856 81.024-55.488q44.672-44.672 65.088-92.512t20.416-81.664-10.848-66.976-17.856-44.672-12.128-16.576l-1.28-2.56-370.016-372.576q-26.784-30.624-74.016-30.624-54.88-1.28-108.448 52.32-28.064 28.064-34.464 65.088t1.28 63.168 21.696 46.56l3.84 3.84 320.256 325.376 44.672-44.672-317.696-322.816q-33.184-53.6 5.088-93.152 33.184-33.184 62.528-33.184v0q17.856 0 30.624 11.488l368.736 371.296q5.12 6.368 10.208 15.936t10.848 33.184 3.2 47.2-18.496 57.408-47.84 65.696q-30.624 30.624-65.696 44.672t-65.088 10.208-47.2-8.928-28.704-11.488l-426.176-428.704q-6.368-7.648-13.408-18.496t-17.856-46.56-8.928-71.456 25.504-88.672 73.376-104q44.672-45.92 91.872-71.456t81.024-31.264 66.336-0.64 46.56 11.488 24.256 12.768l274.336 270.496 43.392-44.672-279.424-275.616q-6.368-3.84-18.496-10.848t-47.84-17.216-72.736-10.208zM949.664 458.208l43.392-44.672-86.752-81.664-42.112 44.672z" />
<glyph unicode="&#xe920;" glyph-name="attendance" d="M787.424 414.848h-62.848v-193.152h155.424v62.848h-92.576v130.272zM755.424 521.152q-110.848 0-189.152-78.848t-78.272-189.728 78.272-189.152 189.152-78.272 189.728 78.272 78.848 189.152-78.848 189.728-189.728 78.848zM756 48q-85.152 0-145.152 60t-60 144.576 60 144.576 145.152 60 145.152-60 60-144.576-60-144.576-145.152-60zM64 673.152h781.728v-97.152h64v278.848q0 22.848-17.152 39.424t-40 16.576h-795.424q-24 0-40.576-16.576t-16.576-39.424v-774.848q0-22.848 16.576-39.424t40.576-16.576h440v62.848h-433.152v586.272zM206.848 573.728h108.576v-73.152h-108.576v73.152zM400 573.728h108.576v-73.152h-108.576v73.152zM701.728 552v21.728h-108.576v-62.848q50.272 32 108.576 41.152zM206.848 434.272h108.576v-74.272h-108.576v74.272zM508.576 432v2.272h-108.576v-74.272h70.848q14.848 38.848 37.728 72zM206.848 293.728h108.576v-73.152h-108.576v73.152zM400 293.728v-73.152h54.848q-2.272 18.272-2.272 35.424t2.272 37.728h-54.848z" />
<glyph unicode="&#xe921;" glyph-name="auditor" d="M508.672 960h16.576t39.808-4.96 57.504-13.824 60.832-29.856 56.96-50.304 39.808-78.528 16.032-111.136q0-5.536-0.544-14.368t-5.536-35.936-14.368-51.968-29.856-55.296-47.008-52.512q-3.328-2.208-7.2-5.536t-11.616-12.704-9.952-18.24 3.872-22.112 24.896-24.32q2.208-1.12 7.2-3.328t17.152-9.952 21.568-16.032 16.576-19.904 6.624-22.656-12.704-24.32-36.48-25.44h-409.152q-4.416 2.208-11.072 7.2t-18.24 18.784-12.704 27.648 16.576 32.064 58.624 33.728q2.208 1.12 6.080 3.328t10.496 11.072 7.2 17.696-9.952 23.232-32.608 29.856q-4.416 2.208-11.072 7.744t-23.232 25.984-29.312 44.8-23.232 64.704-10.496 84.608q1.12 119.424 72.992 194.624 72.992 76.288 208.992 76.288zM55.296 54.336h913.408v111.68t-3.872 12.16-12.16 15.488-26.528 12.16-44.8 5.536h-745.344q-3.328-1.12-21.024 0.544t-38.72-8.288-21.024-30.976v-118.336zM102.848 11.2h818.304v-75.2h-818.304v75.2z" />
<glyph unicode="&#xe922;" glyph-name="back2" d="M483.232 896q12.896 0 22.816-8.928 10.912-9.92 11.424-23.808t-9.44-23.808l-363.168-386.976 363.168-394.912q9.92-9.92 8.928-24.32t-11.424-23.808-24.32-8.928-23.808 11.424l-384 417.728q-8.928 9.92-8.928 23.328t8.928 23.328l384.992 409.792q9.92 9.92 24.8 9.92zM353.248 482.24h571.52q13.888 0 24.32-9.92t10.432-23.808-10.432-23.808-24.32-9.92h-571.52q-13.888 0-23.808 9.92t-9.92 23.808 9.92 23.808 23.808 9.92z" />
<glyph unicode="&#xe923;" glyph-name="bag" d="M578.848 150.816h-138.432v99.072h-440.384v-169.472q0-36.992 26.272-63.84t64.448-26.848h842.592q38.176 0 64.448 26.848t26.24 63.84v169.472h-445.152v-99.072zM933.312 748.768h-175.456l-125.312 157.536h-249.44l-113.376-157.536h-179.008q-38.176 0-64.448-26.272t-26.272-64.448v-360.416h438.016v130.080h140.832v-130.080h445.152v360.416q0 38.176-26.24 64.448t-64.448 26.272zM342.528 748.768l73.984 95.488h189.76l76.384-95.488h-340.128z" />
<glyph unicode="&#xe924;" glyph-name="bar-chart" d="M989.504 143.52h-921.728v642.24q0 14.272-10.112 24.384t-23.776 10.112-23.776-10.112-10.112-24.384v-710.016h989.504q14.272 0 24.384 9.504t9.504 23.776-10.112 24.384-23.776 10.112zM246.176 167.328q14.272 0 24.384 10.112t10.112 24.384v246.176q0 14.272-10.112 24.384t-24.384 10.112-23.776-10.112-9.504-24.384v-246.176q0-14.272 9.504-24.384t23.776-10.112zM618.432 167.328q14.272 0 24.384 10.112t10.112 24.384v374.624q0 14.272-10.112 23.776t-24.384 9.504-23.776-9.504-9.504-23.776v-374.624q0-14.272 9.504-24.384t23.776-10.112zM437.664 167.328q14.272 0 23.776 10.112t9.504 24.384v495.936q0 14.272-9.504 24.384t-23.776 10.112-24.384-10.112-10.112-24.384v-495.936q0-14.272 10.112-24.384t24.384-10.112zM807.552 167.328q14.272 0 23.776 10.112t9.504 24.384v562.56q0 14.272-9.504 24.384t-23.776 10.112-24.384-10.112-10.112-24.384v-562.56q0-14.272 10.112-24.384t24.384-10.112z" />
<glyph unicode="&#xe925;" glyph-name="blackboard" d="M39.392 44.896l-39.392 754.112 984.608 52.128 39.392-754.112zM62.56 743.392l33.6-635.936 865.312 45.184-33.6 635.936zM498.112 416.736q-32.448 27.808-89.184 31.264 91.52 41.696 82.24 129.728-5.792 54.432-49.216 79.36t-121.056 16.8q-13.888-1.152-50.976-6.944-40.544-5.792-53.28-6.944-42.848-4.64-90.368-8.096l2.304-16.224 45.184-9.28q8.096-1.152 10.432-10.432 0-4.64 1.152-13.888t1.152-12.736q3.488-22.016 4.64-32.448l30.112-289.6q3.488-34.752 3.488-39.392 2.304-16.224 3.488-32.448 0-8.096-9.28-11.584l-41.696-18.528 2.304-15.072q42.848 5.792 89.184 10.432 24.32 3.488 47.488 4.64 20.864 1.152 39.392 2.304 92.672 10.432 140.16 55.008t40.544 115.264q-5.792 49.824-38.24 78.784zM253.696 634.496q13.888 2.304 23.168 4.064t19.68 2.912q52.128 5.792 82.24-13.888t34.752-70.656q5.792-48.64-18.528-77.024t-76.448-34.176q-25.472-2.304-45.184-3.488zM436.704 234.848q-26.656-32.448-86.88-39.392-10.432-1.152-25.472-1.152-13.888-1.152-25.472 2.304l-22.016 216.608q18.528 3.488 39.392 4.64 68.352 8.096 102.528-15.648t39.968-79.36-22.016-88.032zM896.576 410.944q-8.096 71.808-51.552 112.928t-110.624 34.176q-48.64-5.792-103.104-48.64l-6.944 71.808q-11.584 108.896-15.072 161.024l-3.488 3.488q-54.432-19.68-113.504-38.24l2.304-11.584 49.824-9.28q9.28-75.296 17.376-147.104l22.016-211.968q8.096-76.448 11.584-116.992 70.656-12.736 130.88-5.792 89.184 9.28 134.368 63.712t35.904 142.496zM805.632 280.608q-26.048-39.968-86.304-45.76-28.96-3.488-59.072 2.304l-26.656 250.208q32.448 19.68 67.2 23.168 54.432 5.792 85.728-26.048t38.24-95.552q6.944-68.352-19.104-108.32z" />
<glyph unicode="&#xe926;" glyph-name="blog-manager" d="M85.952 58.24v174.304q-85.952 98.048-85.952 216.672 0 100.448 62.336 186.4t168.256 136.16 230.592 50.24q65.376 0 127.104-14.528l-13.312-60.512q-55.68 13.312-113.792 13.312-107.712 0-199.712-41.76t-145.248-113.184-53.248-156.128q0-100.448 76.256-182.784l8.48-9.696v-119.84l139.2 32.672 8.48-3.616q81.088-27.84 165.824-27.84v-61.728q-90.784 0-176.704 29.056zM249.344 297.92l48.416 202.144 498.688 399.424q25.408 20.576 62.336 13.312t61.12-37.536l39.936-50.848q27.84-35.104 23.008-75.040-2.432-31.456-26.624-50.848l-497.472-398.208zM353.44 464.96l-25.408-104.096 107.712 1.216 481.728 384.896q3.616 3.616 4.832 9.696 1.216 14.528-10.88 29.056l-39.936 50.848q-9.696 12.096-21.184 15.744t-15.136-1.216zM781.92 838.976l122.24-151.296-48.416-38.72-122.24 151.296zM392.16 535.136l122.24-151.296-48.416-38.72-122.24 151.296zM792.8-24.064l-16.96 1.216q-9.696 0-18.144 2.432-19.36 6.048-32.064 20.576t-16.352 33.888q-23.008-12.096-49.632-3.616-16.96 4.832-30.272 18.144l-10.88 10.88q-19.36 20.576-18.144 49.632 0 16.96 8.48 31.456-2.432 1.216-4.832 1.216-23.008 7.264-36.928 26.016t-12.704 41.76v15.744q1.216 27.84 21.792 48.416 15.744 14.528 36.32 18.144-8.48 15.744-7.264 32.672 0 29.056 20.576 48.416l10.88 10.88q29.056 27.84 67.776 15.744 7.264-1.216 13.312-4.832 4.832 19.36 19.36 33.888 20.576 19.36 48.416 19.36h15.744q9.696-1.216 18.144-3.616 19.36-4.832 32.064-19.968t16.352-33.28q25.408 13.312 52.032 4.832 18.144-4.832 30.272-18.144l10.88-10.88q19.36-20.576 18.144-49.632 0-18.144-9.696-33.888 3.616-1.216 4.832-1.216 21.792-6.048 35.712-25.408t13.92-42.368l-1.216-15.744q0-27.84-20.576-47.2-15.744-14.528-36.32-18.144 8.48-15.744 8.48-32.672-1.216-29.056-21.792-48.416l-10.88-10.88q-29.056-27.84-66.56-16.96-8.48 2.432-15.744 7.264-4.832-24.192-23.616-39.936t-42.976-15.744zM710.496 116.352l20.576-10.88q9.696-4.832 19.36-8.48l21.792-7.264-1.216-44.8q0-4.832 4.832-6.048l16.96-1.216q6.048 0 6.048 7.264l1.216 44.8 21.792 6.048q10.88 2.432 20.576 7.264l20.576 10.88 26.624-27.84 2.432-2.432q4.832 0 6.048 2.432l10.88 10.88q2.432 1.216 2.432 4.832 0 2.432-1.216 4.832l-26.624 27.84 12.096 19.36q4.832 9.696 8.48 19.36l7.264 21.792 42.368-1.216q3.616 0 5.44 1.824t1.824 5.44v14.528q0 6.048-3.616 7.264l-44.8 1.216-6.048 21.792q-3.616 10.88-8.48 21.792l-9.696 20.576 26.624 25.408q2.432 2.432 2.432 5.44t-1.216 5.44l-10.88 10.88q-1.216 1.216-3.616 1.216-3.616 1.216-6.048-1.216l-26.624-26.624-20.576 10.88q-9.696 6.048-20.576 9.696l-21.792 7.264 1.216 42.368q0 4.832-4.832 6.048l-16.96 1.216q-2.432 0-4.832-1.824t-2.432-5.44l-1.216-42.368-21.792-6.048q-9.696-3.616-19.36-8.48l-20.576-10.88-26.624 27.84q-1.216 1.216-2.432 1.216-4.832 1.216-6.048-1.216l-10.88-10.88q-2.432-1.216-2.432-4.224t1.216-5.44l26.624-26.624-10.88-20.576q-6.048-9.696-9.696-19.36l-7.264-21.792h-43.584q-2.432 0-4.832-1.824t-2.432-4.224v-15.744q0-4.832 4.832-6.048l45.984-1.216 6.048-23.008q3.616-9.696 8.48-20.576l9.696-19.36-26.624-25.408q-2.432-2.432-2.432-6.048 0-2.432 2.432-4.832l9.696-10.88q1.216-1.216 2.432-1.216 4.832 0 7.264 1.216zM789.184 115.136q-39.936 0-68.384 28.448t-28.448 68.384 28.448 68.384 68.384 28.448 68.384-28.448 28.448-68.384-28.448-68.384-68.384-28.448zM789.184 247.072q-14.528 0-24.8-10.304t-10.304-24.8 10.304-24.8 24.8-10.304 24.192 10.304 9.696 24.8-9.696 24.8-24.192 10.304z" />
<glyph unicode="&#xe927;" glyph-name="blog" d="M305.408 467.648l-52.768-221.184 227.936 2.24 510.88 409.824q32.576 25.824 31.424 70.752 0 38.176-25.824 70.752l-41.536 51.648q-34.816 43.776-87.584 43.776-30.304 0-51.648-17.952l-213.344-170.656 17.952 77.472-8.992 2.24q-64 14.592-131.36 14.592-130.24 0-240.832-52.224t-175.168-142.048-64.576-196.48q0-122.4 87.584-223.424v-186.4l211.104 49.408q87.584-30.304 181.888-30.304 130.24 0 240.832 52.768t175.168 142.592 64.576 195.36q0 65.12-24.704 125.76l-3.36 7.872-76.352-31.424 3.36-7.872q19.072-46.048 19.072-94.304 0-83.072-53.344-154.4t-145.408-112.288-199.872-40.992q-86.464 0-166.176 28.064l-11.232 4.48-133.6-31.424v114.528l-11.232 12.352q-76.352 80.832-76.352 179.648 0 84.224 53.344 154.944t145.408 112.288 199.872 41.536q58.4 0 113.408-12.352l6.752-2.24zM867.936 813.472v0h2.24q10.112 0 21.344-13.472l41.536-51.648q7.872-10.112 7.872-20.224v-5.6l-31.424-24.704-72.992 90.944zM772.48 737.12l72.992-90.944-330.112-263.872-72.992 90.944zM378.4 421.6v0l72.992-90.944-94.304-1.12z" />
<glyph unicode="&#xe928;" glyph-name="book-o" d="M739.2-51.2l-400 121.6c-108.8 35.2-195.2 147.2-195.2 252.8v470.4c0 51.2 19.2 92.8 54.4 118.4 41.6 28.8 99.2 35.2 160 16l320-112c48-16 172.8-60.8 179.2-64l22.4-6.4v-22.4c0 0-3.2-108.8-3.2-153.6v-348.8h-64v345.6c0 32 3.2 96 3.2 131.2-38.4 12.8-121.6 44.8-156.8 54.4l-320 112c-41.6 16-76.8 12.8-102.4-3.2-19.2-16-28.8-38.4-28.8-67.2v-473.6c0-76.8 70.4-163.2 150.4-192l316.8-96v569.6l-416 156.8 22.4 60.8 454.4-169.6v-700.8z" />
<glyph unicode="&#xe929;" glyph-name="bookmark-manager" d="M473.472 135.36q0 30.592 5.664 63.424-13.6-2.272-21.536-6.784l-217.472-118.944 41.92 254.88q5.664 33.984-18.112 58.912l-184.64 184.64 250.336 37.376q37.376 4.544 53.248 37.376l108.736 225.408 109.888-225.408q14.72-33.984 52.096-39.648l250.336-35.104-81.568-81.568h4.544q40.768 0 83.808-10.208l44.192 44.192q28.32 28.32 14.72 67.968t-54.368 45.312l-252.608 37.376-108.736 226.56q-19.264 39.648-62.304 39.648t-62.304-39.648l-108.736-226.56-252.608-37.376q-41.92-5.664-54.944-45.888t17.568-67.392l182.368-184.64-41.92-253.728q-6.784-41.92 29.44-65.696 15.872-13.6 39.648-13.6 14.72 0 32.864 7.936l200.48 108.736v12.448zM765.728-44.736h-19.264q-10.208 1.12-19.264 3.392-22.656 6.784-36.8 24.928t-16.416 40.768q-27.2-16.992-58.912-7.936-18.112 5.664-31.712 20.384l-12.448 12.448q-21.536 21.536-20.384 52.096 0 22.656 12.448 40.768-4.544 0-11.328 1.12-23.776 7.936-39.072 28.32t-14.144 45.312v18.112q1.12 29.44 22.656 50.976 19.264 18.112 45.312 20.384-11.328 19.264-11.328 41.92 1.12 30.592 22.656 50.976l13.6 12.448q30.592 29.44 71.36 18.112 10.208-3.392 20.384-10.208 3.392 26.048 22.656 43.040 20.384 21.536 50.976 21.536l19.264-1.12q10.208 0 19.264-2.272 21.536-6.784 36.256-24.352t15.872-40.224q29.44 18.112 62.304 9.056 18.112-5.664 31.712-20.384l12.448-12.448q20.384-22.656 20.384-52.096-1.12-23.776-14.72-43.040 5.664 0 11.328-2.272 23.776-6.784 38.528-27.2t14.72-45.312v-18.112q-1.12-29.44-23.776-50.976-18.112-18.112-44.192-20.384 11.328-18.112 11.328-40.768-1.12-30.592-22.656-52.096l-12.448-12.448q-31.712-29.44-72.48-16.992-11.328 3.392-20.384 10.208-3.392-28.32-24.928-47.008t-48.704-18.688zM672.864 105.92l20.384-10.208q11.328-6.784 22.656-11.328l21.536-6.784-1.12-47.584q0-9.056 7.936-11.328 2.272-1.12 3.392-1.12h16.992q12.448 0 12.448 12.448l1.12 46.432 21.536 5.664q13.6 4.544 23.776 10.208l20.384 10.208 28.32-29.44q1.12-2.272 4.544-3.392 6.784-1.12 11.328 3.392l12.448 11.328q4.544 4.544 4.544 9.632t-3.392 7.36l-27.2 29.44 11.328 20.384q5.664 11.328 10.208 22.656l6.784 21.536 46.432-1.12q4.544 0 7.936 3.392t3.392 7.936l1.12 18.112q0 9.056-9.056 11.328l-48.704 1.12-5.664 22.656q-3.392 14.72-9.056 24.928l-10.208 20.384 28.32 28.32q3.392 3.392 4.544 9.056 0 4.544-3.392 7.936l-12.448 12.448q-2.272 2.272-5.664 3.392-5.664 2.272-10.208-2.272l-29.44-28.32-20.384 11.328q-11.328 6.784-23.776 10.208l-22.656 6.784 1.12 46.432q0 9.056-7.936 11.328h-3.392l-16.992 1.12q-5.664 0-9.056-3.392-3.392-4.544-3.392-9.056l-1.12-45.312-21.536-6.784q-12.448-3.392-23.776-9.056l-20.384-10.208-27.2 28.32q-2.272 2.272-4.544 3.392h-3.392q-5.664 0-7.936-3.392l-13.6-11.328q-3.392-3.392-3.392-9.056 0-4.544 3.392-7.936l27.2-29.44-11.328-19.264q-5.664-12.448-10.208-23.776l-6.784-22.656-46.432 1.12q-4.544 0-8.48-3.392t-3.968-7.936v-18.112q-1.12-9.056 7.936-11.328h2.272l47.584-1.12 6.784-22.656q2.272-11.328 9.056-23.776l10.208-20.384-28.32-27.2q-3.392-2.272-4.544-7.936 0-5.664 3.392-9.056l12.448-12.448q2.272-2.272 4.544-2.272 6.784-2.272 11.328 2.272zM761.216 113.856q-44.192 0-75.328 31.136t-31.136 74.752 31.136 74.752 75.328 31.136 75.328-31.136 31.136-74.752-31.136-74.752-75.328-31.136zM761.216 263.36q-18.112 0-31.136-13.024t-13.024-31.136 13.024-30.592 31.136-12.448 30.592 12.448 12.448 30.592q1.12 18.112-11.904 31.136t-31.136 13.024z" />
<glyph unicode="&#xe92a;" glyph-name="bookmark" d="M777.6-41.6c-12.8 0-25.6 3.2-35.2 6.4-3.2 0-3.2 3.2-6.4 3.2l-224 128-224-128c-3.2 0-3.2-3.2-6.4-3.2-25.6-12.8-60.8-9.6-83.2 6.4-25.6 19.2-38.4 51.2-32 83.2l51.2 252.8c-19.2 19.2-51.2 48-86.4 80l-102.4 96c0 0-3.2 3.2-3.2 3.2-19.2 22.4-28.8 54.4-19.2 83.2s35.2 51.2 64 54.4c3.2 0 3.2 0 6.4 0l256 28.8 105.6 236.8c0 3.2 3.2 3.2 3.2 6.4 12.8 25.6 41.6 41.6 70.4 41.6s57.6-16 70.4-41.6c0-3.2 3.2-3.2 3.2-6.4l105.6-236.8 256-28.8c3.2 0 3.2 0 6.4 0 28.8-6.4 54.4-25.6 64-54.4s3.2-60.8-19.2-83.2c0 0-3.2-3.2-3.2-3.2l-192-172.8 51.2-252.8c6.4-32-6.4-64-32-83.2-9.6-12.8-28.8-16-44.8-16zM332.8 316.8c-3.2-9.6-25.6-121.6-44.8-224l198.4 115.2c16 9.6 38.4 9.6 54.4 0l198.4-112-48 224c-3.2 19.2 3.2 38.4 16 51.2l169.6 153.6-227.2 25.6c-19.2 3.2-35.2 12.8-44.8 32l-96 208-96-208c-6.4-19.2-25.6-28.8-44.8-32l-227.2-25.6 169.6-153.6c19.2-16 25.6-35.2 22.4-54.4z" />
<glyph unicode="&#xe92b;" glyph-name="calculate, cruiser-eval-result" d="M910.4-64h-796.8v1024h796.8v-1024zM179.2 1.6h665.6v892.8h-665.6v-892.8zM284.8 764.8h454.4v-65.6h-454.4v65.6zM284.8 577.6h112v-112h-112v112zM456 577.6h112v-112h-112v112zM627.2 577.6h112v-112h-112v112zM284.8 408h112v-112h-112v112zM456 408h112v-112h-112v112zM627.2 408h112v-112h-112v112zM284.8 238.4h112v-113.6h-112v113.6zM456 238.4h112v-113.6h-112v113.6zM627.2 238.4h112v-113.6h-112v113.6z" />
<glyph unicode="&#xe92c;" glyph-name="calendar-manager" d="M800-32h-118.4l-6.4 67.2c-3.2 0-3.2 3.2-6.4 3.2l-54.4-44.8-83.2 83.2 44.8 51.2c0 3.2-3.2 3.2-3.2 6.4l-70.4 6.4v118.4l67.2 6.4c0 3.2 3.2 3.2 3.2 6.4l-44.8 54.4 83.2 83.2 51.2-44.8c3.2 0 3.2 3.2 6.4 3.2l6.4 70.4h118.4l6.4-67.2c3.2 0 3.2-3.2 6.4-3.2l57.6 48 83.2-83.2-44.8-51.2c0-3.2 3.2-3.2 3.2-6.4l70.4-6.4v-118.4l-67.2-6.4c0-3.2-3.2-3.2-3.2-6.4l44.8-54.4-86.4-86.4-51.2 44.8c-3.2 0-3.2-3.2-6.4-3.2l-6.4-70.4zM720 12.8h38.4l6.4 57.6 12.8 3.2c9.6 3.2 16 6.4 25.6 9.6l12.8 6.4 44.8-35.2 25.6 25.6-35.2 48 6.4 12.8c3.2 9.6 6.4 16 9.6 25.6l3.2 12.8 57.6 6.4v38.4l-57.6 6.4-3.2 12.8c-3.2 9.6-6.4 16-9.6 25.6l-6.4 12.8 35.2 44.8-25.6 25.6-44.8-32-12.8 6.4c-9.6 3.2-16 6.4-25.6 9.6l-12.8 3.2-6.4 57.6h-38.4l-6.4-57.6-12.8-3.2c-9.6-3.2-16-6.4-25.6-9.6l-12.8-6.4-48 32-25.6-25.6 38.4-44.8-6.4-12.8c-3.2-9.6-6.4-16-9.6-25.6l-3.2-12.8-60.8-6.4v-38.4l57.6-6.4 3.2-12.8c3.2-9.6 6.4-16 9.6-25.6l6.4-12.8-35.2-44.8 25.6-25.6 44.8 38.4 12.8-6.4c9.6-3.2 16-6.4 25.6-9.6l12.8-3.2 9.6-64zM739.2 124.8c-44.8 0-80 35.2-80 80s35.2 80 80 80c44.8 0 80-35.2 80-80s-35.2-80-80-80zM739.2 243.2c-19.2 0-38.4-16-38.4-38.4 0-19.2 16-38.4 38.4-38.4 19.2 0 38.4 16 38.4 38.4-3.2 19.2-19.2 38.4-38.4 38.4zM483.2 60.8h-332.8v534.4h678.4v-115.2c35.2-12.8 70.4-32 96-60.8v320c0 51.2-44.8 96-96 96 0 0-44.8 0-54.4 0v96h-96v-96h-384v96h-96v-96h-48c-54.4 0-96-44.8-96-96v-675.2c0-51.2 38.4-96 96-96h425.6c-35.2 25.6-67.2 57.6-92.8 92.8zM444.8 211.2c0 32 6.4 64 16 92.8h-217.6v-96l201.6 3.2c0-3.2 0 0 0 0zM729.6 499.2h-486.4v-96h275.2c51.2 57.6 128 96 211.2 96z" />
<glyph unicode="&#xe92d;" glyph-name="calendar-o" d="M848-54.4h-672c-67.2 0-118.4 51.2-118.4 121.6v668.8c0 67.2 54.4 118.4 118.4 118.4h22.4v96h144v-96h332.8v96h144v-96h28.8c64 0 118.4-57.6 118.4-118.4v-668.8c0-64-54.4-121.6-118.4-121.6zM176 809.6c-38.4 0-70.4-32-70.4-70.4v-668.8c0-35.2 25.6-70.4 70.4-70.4h672c38.4 0 70.4 35.2 70.4 70.4v665.6c0 38.4-35.2 70.4-70.4 70.4h-76.8v96h-48v-96h-428.8v96h-48v-96h-70.4zM857.6 80h-691.2v486.4h688v-486.4zM198.4 112h624v422.4h-624v-422.4zM579.2 272v-38.4h-236.8v38.4h236.8zM604.8 300.8h-291.2v-96h291.2v96zM672 412.8v-38.4h-320v38.4h320zM710.4 441.6h-396.8v-96h396.8v96z" />
<glyph unicode="&#xe92e;" glyph-name="calendar" d="M934.4-48h-848c-38.4 0-70.4 32-70.4 70.4v742.4c0 38.4 32 70.4 70.4 70.4h70.4v-35.2c0-57.6 48-105.6 105.6-105.6s105.6 48 105.6 105.6v38.4h281.6v-38.4c0-57.6 48-105.6 105.6-105.6 60.8 0 108.8 48 108.8 105.6v38.4h70.4c38.4 0 70.4-32 70.4-70.4v-742.4c0-41.6-32-73.6-70.4-73.6zM934.4 588.8h-848v-566.4h848v566.4zM406.4 313.6c6.4 9.6 9.6 22.4 9.6 35.2 0 28.8-16 41.6-44.8 41.6-25.6 0-51.2-9.6-73.6-32v57.6c25.6 16 54.4 25.6 86.4 25.6 28.8 0 54.4-6.4 70.4-22.4s25.6-35.2 25.6-60.8c0-35.2-19.2-70.4-60.8-108.8l-60.8-54.4h121.6v-54.4h-195.2v51.2l86.4 80c16 16 28.8 28.8 35.2 41.6zM646.4 195.2c9.6 6.4 12.8 16 12.8 28.8s-6.4 22.4-16 32c-12.8 6.4-28.8 9.6-48 9.6h-25.6v51.2h25.6c38.4 0 57.6 12.8 57.6 38.4s-16 35.2-44.8 35.2c-19.2 0-38.4-6.4-57.6-19.2v54.4c22.4 9.6 44.8 16 73.6 16s54.4-6.4 70.4-19.2c16-12.8 25.6-32 25.6-54.4 0-38.4-19.2-64-57.6-73.6v0c22.4-3.2 38.4-9.6 51.2-22.4s19.2-28.8 19.2-48c0-28.8-9.6-51.2-32-67.2-19.2-16-48-25.6-83.2-25.6-32 0-54.4 6.4-73.6 16v57.6c19.2-16 41.6-22.4 70.4-22.4 9.6 0 22.4 6.4 32 12.8zM758.4 729.6c-38.4 0-70.4 32-70.4 70.4v73.6c0 38.4 32 70.4 70.4 70.4s70.4-32 70.4-70.4v-73.6c-3.2-38.4-32-70.4-70.4-70.4zM262.4 729.6c-38.4 0-70.4 32-70.4 70.4v73.6c0 38.4 32 70.4 70.4 70.4s70.4-32 70.4-70.4v-73.6c0-38.4-32-70.4-70.4-70.4z" />
<glyph unicode="&#xe92f;" glyph-name="camera, camera-one, camera-two" d="M512.576 535.488q-58.336-1.12-95.328-40.384-38.144-40.384-38.144-94.208 1.12-23.552 23.552-23.552 23.552 0 23.552 24.672 1.12 35.904 25.792 60.576t60.576 24.672q24.672 0 24.672 24.128t-24.672 24.128zM517.056 661.088h-4.48q-108.8-1.12-183.936-76.256-75.136-76.256-75.136-182.816 0-111.040 75.136-183.936 76.256-72.896 183.936-76.256h7.84q103.2 0 176.096 76.256 76.256 78.496 76.256 183.936t-76.256 182.816q-75.136 76.256-179.456 76.256zM693.12 415.488q5.6-75.136-42.624-132.352-50.464-56.064-123.36-61.696-74.016-5.6-131.232 42.624-58.336 49.344-62.816 123.36-6.72 72.896 42.624 131.232t122.24 62.816h12.352q67.296 0 120-43.744 57.216-47.104 62.816-122.24zM938.752 690.272l-131.232 22.432-41.504 104.32q-28.032 63.936-96.448 63.936h-316.288q-30.272 0-55.52-16.832t-38.688-47.104l-41.504-104.32-130.112-22.432q-37.024-5.6-61.12-34.208t-24.128-66.72v-471.072q-2.24-40.384 29.152-71.776 30.272-31.392 72.896-31.392h816.512q43.744 1.12 73.472 30.848t29.728 72.352v471.072q0 38.144-23.552 66.176t-61.696 34.784zM943.232 589.312v-471.072q1.12-8.96-5.6-15.712t-16.832-6.72h-816.512q-22.432 0-22.432 22.432v471.072q0 20.192 17.952 23.552l176.096 29.152 57.184 144.672q6.72 14.592 22.432 14.592h314.048q16.832 0 22.432-14.592l58.336-144.672 174.976-29.152q17.952-3.36 17.952-23.552z" />
<glyph unicode="&#xe930;" glyph-name="campus-file-manager" d="M192.576 68.576q-14.848 0-25.152 10.272t-10.272 25.152v763.424q0 14.848 10.272 25.152t25.152 10.272h525.728q14.848 0 25.728-10.272t10.848-25.152v-442.272q16 1.152 20.576 1.152 17.152 0 35.424-2.272v443.424q0 37.728-26.848 65.152t-65.728 27.424h-525.728q-38.848 0-65.728-27.424t-26.848-65.152v-763.424q0-37.728 26.848-65.152t65.728-27.424h277.728q-8 25.152-12.576 57.152h-265.152zM237.152 761.152h402.272v-57.152h-402.272v57.152zM237.152 614.848h402.272v-57.152h-402.272v57.152zM236 483.424h402.272v-57.152h-402.272v57.152zM686.272-64h-17.152q-8 1.152-17.152 3.424-20.576 5.728-33.728 22.272t-15.424 37.152q-25.152-14.848-53.728-6.848-17.152 4.576-29.728 18.272l-11.424 11.424q-18.272 19.424-18.272 48 0 20.576 11.424 36.576-4.576 1.152-10.272 2.272-22.848 6.848-36 25.152t-13.152 41.152v17.152q1.152 27.424 21.728 46.848 17.152 17.152 41.152 19.424-10.272 17.152-10.272 37.728 1.152 27.424 20.576 46.848l11.424 11.424q28.576 27.424 66.272 16 9.152-2.272 19.424-9.152 2.272 24 19.424 40 19.424 19.424 48 19.424l17.152-1.152q9.152 0 17.152-2.272 20.576-5.728 33.728-22.272t14.272-37.152q26.272 17.152 57.152 8 17.152-4.576 29.728-18.272l10.272-11.424q19.424-20.576 18.272-48 0-21.728-12.576-38.848 4.576 0 10.272-2.272 21.728-5.728 35.424-24.576t12.576-41.728v-16q-1.152-27.424-20.576-46.848-17.152-17.152-41.152-19.424 10.272-16 10.272-36.576-1.152-28.576-20.576-48l-12.576-10.272q-27.424-27.424-65.152-16-10.272 2.272-19.424 9.152-3.424-26.272-22.272-43.424t-45.152-17.152zM601.728 74.272l18.272-10.272q9.152-5.728 21.728-9.152l19.424-6.848-1.152-43.424q0-8 8-10.272 1.152 0 2.272-1.152h16q11.424 0 11.424 11.424l1.152 42.272 19.424 5.728q11.424 3.424 21.728 9.152l19.424 9.152 25.152-26.272q2.272-2.272 4.576-3.424 5.728-1.152 10.272 3.424l12.576 11.424q2.272 2.272 2.272 6.848t-2.272 8l-25.152 26.272 10.272 18.272q5.728 10.272 9.152 21.728l6.848 19.424 42.272-1.152q4.576 0 7.424 2.848t2.848 8.576l1.152 16q0 8-8 10.272l-44.576 1.152-4.576 20.576q-3.424 12.576-9.152 22.848l-9.152 18.272 26.272 26.272q3.424 3.424 3.424 8t-3.424 8l-10.272 11.424-4.576 2.272q-6.848 1.152-10.272-2.272l-27.424-26.272-18.272 10.272q-11.424 6.848-21.728 10.272l-20.576 6.848 1.152 41.152q0 8-8 10.272-1.152 1.152-2.272 1.152h-16q-4.576 0-8-2.272-3.424-3.424-3.424-8l-1.152-41.152-19.424-6.848q-11.424-3.424-21.728-8l-18.272-10.272-26.272 26.272q-1.152 1.152-4.576 2.272-5.728 1.152-10.272-2.272l-11.424-11.424q-3.424-2.272-3.424-8 0-4.576 3.424-8l25.152-26.272-10.272-18.272q-6.848-11.424-9.152-21.728l-6.848-19.424-43.424 1.152q-4.576 0-7.424-3.424t-4-8v-16q0-8 8-10.272l45.728-1.152 5.728-20.576q3.424-12.576 8-21.728l9.152-19.424-25.152-24q-3.424-3.424-3.424-8t2.272-8l11.424-11.424q1.152-2.272 4.576-3.424 5.728-1.152 10.272 3.424zM682.848 81.152q-40 0-68.576 28.576t-28.576 68.576 28.576 68.576 68.576 28.576 68.576-28.576 28.576-68.576-28.576-68.576-68.576-28.576zM682.272 218.272q-16.576 0-28-12t-11.424-28.576 11.424-28 28-11.424 28.576 11.424 12 28-12 28.576-28.576 12z" />
<glyph unicode="&#xe931;" glyph-name="campus-manager" horiz-adv-x="1056" d="M687.104 490.432v-86.048q30.656 14.144 61.28 18.848v67.168q0 12.96-8.832 22.4t-21.792 9.44-21.792-9.44-8.832-22.4zM30.624 121.536q-12.96 0-21.792-9.44t-8.832-21.792 8.832-21.792 21.792-9.44h532.704q-11.776 31.808-14.144 61.28h-518.56v1.184zM38.88 551.712h820.288l4.704 4.704q18.848 17.664 18.848 44.8t-20.032 47.136l-368.896 272.256q-17.664 17.664-45.376 17.664t-43.008-16.512l-371.264-275.776q-18.848-17.664-18.848-44.192t18.848-45.376zM132 490.432v-319.392q0-12.96 8.832-21.792t21.792-8.832 21.792 8.832 8.832 21.792v319.392q0 12.96-8.832 22.4t-21.792 9.44-21.792-9.44-8.832-22.4zM426.656 490.432v-319.392q0-12.96 8.832-21.792t21.792-8.832 21.792 8.832 8.832 21.792v319.392q0 12.96-8.832 22.4t-21.792 9.44-21.792-9.44-8.832-22.4zM821.472 291.264q-40.064 0-68.352-28.288t-28.288-68.352 28.288-68.352 68.352-28.288 68.352 28.288 28.288 68.352-28.288 68.352-68.352 28.288zM820.864 159.264q-14.72 0-24.736 10.016t-10.016 24.736 10.016 24.736 24.736 10.016 24.736-10.016 10.016-24.736-10.016-24.736-24.736-10.016zM1007.68 264.128q-3.52 1.184-5.888 1.184 9.44 15.328 10.592 34.176 0 28.288-18.848 49.504l-10.592 10.592q-12.96 12.96-30.656 18.848-28.288 8.256-53.024-5.888-2.368 18.848-15.328 34.176t-32.992 20.032q-7.072 2.368-17.664 3.52h-16.512q-27.104 0-47.136-18.848-15.328-15.328-20.032-35.36-7.072 4.704-14.144 5.888-38.88 11.776-67.168-15.328l-10.592-11.776q-21.216-18.848-21.216-47.136-1.184-18.848 7.072-34.176-21.216-3.52-36.544-18.848-20.032-18.848-21.216-47.136v-16.512q-1.184-22.4 12.96-41.248t36.544-25.92l4.704-1.184q-8.256-15.328-8.256-32.992-1.184-27.104 18.848-48.32l10.592-10.592q11.776-14.144 29.472-18.848 25.92-8.256 50.688 4.704 2.368-20.032 15.904-35.36t32.416-20.032q9.44-3.52 17.664-3.52h16.512q24.736 0 43.616 15.328t23.584 40.064q7.072-4.704 15.328-7.072 37.728-10.592 67.168 16.512l10.592 10.592q21.216 20.032 21.216 48.32 1.184 17.664-7.072 32.992 20.032 3.52 35.36 17.664 21.216 20.032 21.216 48.32l1.184 15.328q0 23.584-13.568 42.432t-34.752 25.92zM993.536 182.816q0-3.52-1.184-4.704-2.368-2.368-5.888-2.368h-42.432l-7.072-20.032q-3.52-11.776-9.44-20.032l-10.592-20.032 25.92-27.104q2.368-2.368 2.368-5.312t-2.368-5.312l-11.776-10.592q-1.184-2.368-7.072-2.368l-2.368 2.368-25.92 27.104-21.216-9.44q-9.44-5.888-20.032-8.256l-21.216-5.888-1.184-44.8q0-7.072-7.072-7.072v0l-17.664 1.184q-4.704 1.184-4.704 7.072l1.184 43.616-21.216 7.072q-9.44 3.52-20.032 9.44l-20.032 10.592-27.104-25.92q-1.184-1.184-5.888-1.184-2.368 1.184-3.52 2.368l-10.592 10.592q-2.368 2.368-2.368 4.704 0 3.52 2.368 5.888l27.104 24.736-9.44 20.032q-4.704 9.44-8.256 21.216l-7.072 21.216-44.8 1.184q-5.888 2.368-5.888 7.072l1.184 16.512q0 2.368 2.368 4.128t4.704 1.76h43.616l7.072 21.216q4.704 10.592 9.44 20.032l10.592 20.032-25.92 27.104q-2.368 2.368-1.184 4.704 0 3.52 1.184 4.704l11.776 10.592q1.184 2.368 7.072 2.368l2.368-2.368 25.92-27.104 20.032 10.592q10.592 4.704 20.032 8.256l21.216 5.888 1.184 43.616q0 2.368 2.368 4.704t4.704 2.368l17.664-1.184q4.704-1.184 4.704-7.072l-1.184-42.432 22.4-7.072q10.592-3.52 20.032-9.44l20.032-10.592 27.104 25.92q2.368 2.368 7.072 1.184 2.368 0 3.52-1.184l10.592-11.776q2.368-1.184 1.184-4.704 0-2.368-2.368-4.704l-27.104-25.92 10.592-20.032q4.704-9.44 8.256-21.216l5.888-22.4 44.8-1.184q4.704-2.368 4.704-7.072z" />
<glyph unicode="&#xe932;" glyph-name="campus-webpages" d="M466.272 53.728q-107.424 108.576-146.272 259.424h176q16 32 40 59.424h-228.576q-5.728 43.424-5.728 80 0 57.152 11.424 110.848h310.848q11.424-53.728 11.424-109.728v-1.152q28.576 14.848 58.272 24-2.272 48-9.152 86.848h177.152q12.576-42.272 14.848-83.424 30.848-8 59.424-21.728-1.152 124.576-62.272 229.728t-165.728 167.424-229.152 65.728v0h-10.272q-126.848 0-234.848-62.848t-170.848-170.848-62.848-234.848 62.848-234.848 170.848-170.848 234.848-62.848q1.152 0 5.728 1.152h3.424l26.272 1.152q-21.728 35.424-32 73.152zM840 622.848h-170.272q-37.728 129.152-125.728 232 98.272-18.272 176.576-80.576t119.424-151.424zM608 622.848h-280q41.152 131.424 138.272 228.576 99.424-97.152 141.728-228.576zM388.576 853.728q-85.728-102.848-122.272-230.848h-170.272q41.152 89.152 118.272 150.848t174.272 80zM59.424 452.576q0 54.848 14.848 110.848h178.272q-10.272-56-10.272-110.848 0-36.576 5.728-80h-180.576q-8 40-8 80zM83.424 313.152h174.848q34.272-146.272 130.272-261.728-105.152 20.576-186.848 90.848t-118.272 170.848zM992 272q8 8 8 19.424t-8 19.424l-210.272 155.424q-8 8-19.424 8t-19.424-8l-210.272-155.424q-8-8-8-19.424t8-19.424h459.424zM596.576 226.272v-150.848q0-11.424 8.576-20t21.152-8.576 21.152 8.576 8.576 20v150.848q0 12.576-8.576 21.152t-21.152 8.576-21.152-8.576-8.576-21.152zM746.272 226.272v-150.848q0-11.424 9.152-20t21.152-8.576 20.576 8.576 8.576 20v150.848q0 12.576-8.576 21.152t-20.576 8.576-21.152-8.576-9.152-21.152zM880 226.272v-150.848q0-11.424 8.576-20t21.152-8.576 21.152 8.576 8.576 20v150.848q0 12.576-8.576 21.152t-21.152 8.576-21.152-8.576-8.576-21.152zM994.272 34.272h-434.272q-12.576 0-21.152-8.576t-8.576-21.152 8.576-21.152 21.152-8.576h434.272q12.576 0 21.152 8.576t8.576 21.152-8.576 21.152-21.152 8.576z" />
<glyph unicode="&#xe933;" glyph-name="campus, campus-o" d="M0 11.392h1024v-41.344h-1024v41.344zM88.768 85.6h846.432v-31.616h-846.432v31.616zM948.608 649.888h-871.968l-1.216 72.96 430.528 203.104 442.688-201.888v-74.176zM117.952 691.232h789.28v6.080l-401.344 182.432-387.936-183.648v-4.864zM491.328 652.32h41.344v-533.888h-41.344v533.888zM664.032 652.32h41.344v-533.888h-41.344v533.888zM835.488 652.32h42.56v-533.888h-42.56v533.888zM318.624 652.32h41.344v-533.888h-41.344v533.888zM147.168 652.32h41.344v-533.888h-41.344v533.888zM463.36 770.272h97.28v-30.4h-97.28v30.4zM496.192 794.592h31.616v-79.040h-31.616v79.040z" />
<glyph unicode="&#xe934;" glyph-name="cancel" d="M512 960q-104.64 0-199.168-40.512t-163.168-109.152-109.152-163.168-40.512-199.168 40.512-199.168 109.152-163.168 163.168-109.152 199.168-40.512 199.168 40.512 163.168 109.152 109.152 163.168 40.512 199.168-40.512 199.168-109.152 163.168-163.168 109.152-199.168 40.512zM747.168 270.208l-59.648-58.528-175.552 176.672-177.792-175.552-58.528 59.648 176.672 175.552-176.672 177.792 59.648 58.528 176.672-177.792 177.792 176.672 58.528-59.648-177.792-175.552z" />
<glyph unicode="&#xe935;" glyph-name="card-horizontal" d="M64 213.728v-182.912q0-12.32 9.248-21.568t21.568-9.248h346.272q12.32 0 21.568 9.248t9.248 21.568v182.912q0 12.32-9.248 21.568t-21.568 9.248h-346.272q-12.32 0-21.568-9.248t-9.248-21.568zM64 539.456v-182.912q0-12.32 9.248-21.568t21.568-9.248h346.272q12.32 0 21.568 9.248t9.248 21.568v182.912q0 12.32-9.248 21.568t-21.568 9.248h-346.272q-12.32 0-21.568-9.248t-9.248-21.568zM64 865.184v-182.912q0-12.32 9.248-21.568t21.568-9.248h346.272q12.32 0 21.568 9.248t9.248 21.568v182.912q0 12.32-9.248 21.568t-21.568 9.248h-346.272q-12.32 0-21.568-9.248t-9.248-21.568zM553.088 213.728v-182.912q0-12.32 9.248-21.568t20.544-9.248h346.272q12.32 0 21.568 9.248t9.248 21.568v182.912q0 12.32-9.248 21.568t-21.568 9.248h-346.272q-12.32 0-21.056-9.248t-8.736-21.568zM553.088 539.456v-182.912q0-12.32 9.248-21.568t20.544-9.248h346.272q12.32 0 21.568 9.248t9.248 21.568v182.912q0 12.32-9.248 21.568t-21.568 9.248h-346.272q-12.32 0-21.056-9.248t-8.736-21.568zM553.088 865.184v-182.912q0-12.32 9.248-21.568t20.544-9.248h346.272q12.32 0 21.568 9.248t9.248 21.568v182.912q0 12.32-9.248 21.568t-21.568 9.248h-346.272q-12.32 0-21.056-9.248t-8.736-21.568z" />
<glyph unicode="&#xe936;" glyph-name="cart, cart-o" d="M348.8 204.8c-70.4 0-121.6-54.4-121.6-121.6s54.4-121.6 121.6-121.6 121.6 54.4 121.6 121.6-51.2 121.6-121.6 121.6zM348.8 41.6c-25.6 0-41.6 16-41.6 41.6s16 41.6 41.6 41.6c25.6 0 41.6-16 41.6-41.6s-16-41.6-41.6-41.6zM835.2 204.8c-70.4 0-121.6-54.4-121.6-121.6s54.4-121.6 121.6-121.6 121.6 54.4 121.6 121.6-51.2 121.6-121.6 121.6zM835.2 41.6c-25.6 0-41.6 16-41.6 41.6s16 41.6 41.6 41.6 41.6-16 41.6-41.6-16-41.6-41.6-41.6zM380.8 243.2h432c0 0 0 0 3.2 0 57.6 0 108.8 41.6 118.4 96l64 342.4c3.2 12.8 0 25.6-9.6 32-9.6 12.8-19.2 16-32 16h-668.8l-12.8 99.2c-6.4 64-57.6 105.6-121.6 105.6h-89.6c-25.6 0-41.6-16-41.6-38.4s16-41.6 41.6-41.6h89.6c19.2 0 35.2-16 41.6-35.2l60.8-470.4c12.8-60.8 60.8-105.6 124.8-105.6zM908.8 652.8l-57.6-294.4c-3.2-19.2-19.2-32-41.6-32h-432c-19.2 0-35.2 16-41.6 35.2l-35.2 288c0 3.2 608 3.2 608 3.2z" />
<glyph unicode="&#xe937;" glyph-name="category" d="M983.552 698.208h-199.936l-63.552 149.088-30.048 18.496h-649.536q-17.344 0-28.896-11.552t-11.552-27.744v-755.872q0-16.192 11.552-28.32t28.896-12.128h943.104q17.344 0 28.896 12.128t11.552 28.32v587.136q0 16.192-11.552 28.32t-28.896 12.128zM713.088 698.208h-251.968l-54.336 104.032h262.368zM960.448 94.912h-896.864v707.328h271.616l78.592-151.392 27.744-17.344h518.944v-538.592z" />
<glyph unicode="&#xe938;" glyph-name="channel" d="M64 616.256v-616.256h896v616.256h-896zM885.344 74.656h-746.656v466.912h746.656v-466.912zM194.432 746.656h635.168v-74.656h-635.168v74.656zM288 896h448v-74.656h-448v74.656z" />
<glyph unicode="&#xe939;" glyph-name="chat" d="M888.928 908.896h-753.824q-41.984 0-71.904-29.408t-29.92-71.392v-519.712q0-41.984 29.92-71.392t71.904-29.408h426.272l219.424-200.544 51.456 55.648-234.144 214.176v6.304h-7.36l-3.136 3.136-3.136-3.136h-449.376q-10.496 0-17.856 7.36t-7.36 17.856v519.712q0 10.496 7.36 17.856t17.856 7.36h753.824q10.496 0 17.856-7.36t7.36-17.856v-519.712q0-10.496-7.36-17.856t-17.856-7.36h-148.032v-75.584h148.032q41.984 0 71.904 29.408t29.92 71.392v519.712q0 41.984-29.92 71.392t-71.904 29.408zM221.184 548.256q0-26.784 18.912-45.664t45.664-18.912 46.208 18.912 19.424 45.664-19.424 45.664-45.664 18.912-45.664-18.912-19.424-45.664zM436.416 548.256q0-26.784 18.912-45.664t45.664-18.912 45.664 18.912 18.912 45.664-18.912 45.664-45.664 18.912-45.664-18.912-18.912-45.664zM790.24 548.256q0 26.784-18.912 45.664t-45.664 18.912-45.664-18.912-18.912-45.664 18.912-45.664 45.664-18.912 45.664 18.912 18.912 45.664z" />
<glyph unicode="&#xe93a;" glyph-name="chatRoom-manager" d="M168.288-6.4v207.136h-168.288v701.664h930.784v-274.432h-66.016v207.136h-798.752v-568.32h169.6v-138.528l170.88 130.752 40.128-51.776zM746.976 60.928h-19.424q-10.368 1.28-20.704 3.872-23.296 6.464-38.848 25.888t-16.832 44q-29.76-18.112-63.424-9.056-19.424 6.464-34.944 22.016l-12.96 12.96q-22.016 24.608-20.704 56.96 0 23.296 12.96 41.44-6.464 1.28-11.648 2.592-25.888 7.776-42.080 29.76t-14.88 47.904v19.424q1.28 32.352 24.608 54.368 20.704 19.424 47.904 22.016-11.648 20.704-11.648 44 1.28 32.352 24.608 55.68l12.96 12.96q33.664 31.072 76.384 18.112 11.648-2.592 22.016-10.368 3.872 27.2 23.296 46.592 23.296 22.016 55.68 22.016h19.424q11.648-1.28 20.704-3.872 23.296-6.464 38.848-25.248t16.832-43.36q31.072 20.704 66.016 10.368 20.704-6.464 34.944-22.016l12.96-12.96q22.016-23.296 20.704-56.96 0-24.608-14.24-44 5.184-1.28 11.648-2.592 24.608-7.776 40.768-29.12t14.88-48.544v-19.424q-1.28-32.352-24.608-54.368-19.424-19.424-46.592-22.016 11.648-19.424 11.648-42.72-1.28-33.664-24.608-55.68l-14.24-12.96q-32.352-31.072-76.384-19.424-11.648 3.872-22.016 11.648-3.872-29.76-26.528-49.856t-52.416-20.064zM648.576 221.44l22.016-11.648q11.648-6.464 24.608-10.368l23.296-7.776-1.28-50.496q-1.28-10.368 9.056-12.96h2.592l18.112-1.28q12.96 0 12.96 12.96l1.28 50.496 23.296 6.464q12.96 3.872 25.888 10.368l22.016 10.368 29.76-31.072q1.28-2.592 5.184-2.592 6.464-2.592 11.648 2.592l12.96 12.96q3.872 3.872 3.872 9.056 1.28 5.184-2.592 9.056l-29.76 31.072 12.96 20.704q6.464 11.648 10.368 24.608l7.776 23.296 49.184-1.28q5.184 0 9.056 3.872t3.872 9.056v18.112q0 10.368-9.056 12.96l-51.776 1.28-6.464 23.296q-3.872 14.24-10.368 27.2l-10.368 22.016 31.072 29.76q3.872 2.592 3.872 8.416t-3.872 9.696l-11.648 12.96q-2.592 2.592-6.464 3.872-6.464 1.28-11.648-3.872l-31.072-29.76-20.704 11.648q-12.96 7.776-27.2 11.648l-23.296 7.776 1.28 49.184q1.28 9.056-9.056 11.648-1.28 0-2.592 1.28h-18.112q-5.184 0-9.056-3.872t-3.872-9.056l-1.28-47.904-23.296-7.776q-12.96-3.872-24.608-10.368l-22.016-10.368-29.76 31.072q-2.592 2.592-5.184 2.592l-3.872 1.28q-3.872 0-7.776-3.872l-14.24-12.96q-3.872-3.872-3.872-9.056t3.872-9.056l28.48-31.072-11.648-20.704q-6.464-11.648-10.368-25.888l-7.776-23.296-50.496 1.28q-5.184 0-9.056-3.232t-3.872-8.416v-19.424q0-9.056 9.056-11.648 1.28-1.28 2.592-1.28l50.496-1.28 6.464-23.296q3.872-12.96 10.368-25.888l10.368-20.704-29.76-28.48q-3.872-3.872-3.872-10.368 0-5.184 3.872-9.056l11.648-12.96q2.592-2.592 5.184-2.592 7.776-2.592 12.96 2.592zM743.072 229.216q-46.592 0-79.616 33.024t-33.024 80.256 33.024 80.256 79.616 33.024 79.616-33.024 33.024-80.256-33.024-80.256-79.616-33.024zM743.072 389.76q-19.424 0-33.024-14.24t-13.6-33.024 13.6-32.352 33.024-13.6 33.024 13.6 13.6 32.352-13.6 33.024-33.024 14.24z" />
<glyph unicode="&#xe93b;" glyph-name="check, ok" d="M361.76 66.624l-361.76 393.92 75.36 69.344 288.416-313.536 586.88 612.992 73.344-71.36z" />
<glyph unicode="&#xe93c;" glyph-name="circle-hollow, circle-o" d="M512 928q-130.016 0-240.64-64.384t-175.008-175.008-64.384-240.64 64.384-240.64 175.008-175.008 240.64-64.384 240.64 64.384 175.008 175.008 64.384 240.64-64.384 240.64-175.008 175.008-240.64 64.384zM915.744 447.36q0-109.376-54.368-201.888t-146.88-146.88-201.888-54.368-202.496 54.368-146.88 146.88-53.76 201.888 53.76 202.496 146.88 147.488 202.496 54.368 201.888-54.368 146.88-147.488 54.368-202.496z" />
<glyph unicode="&#xe93d;" glyph-name="circle, circle-solid" d="M512 928q-130.016 0-240.64-64.384t-175.008-175.008-64.384-240.64 64.384-240.64 175.008-175.008 240.64-64.384 240.64 64.384 175.008 175.008 64.384 240.64-64.384 240.64-175.008 175.008-240.64 64.384z" />
<glyph unicode="&#xe93e;" glyph-name="class-admin-tools" d="M859.584-64h-303.776q-25.024 0-37.536 18.208-13.664 20.48-4.544 44.384l64.864 178.624q6.816 18.208 23.328 30.72t35.84 12.512h116.064v-59.168h-116.064q-3.424 0-4.544-3.424l-59.168-163.84h285.568q2.272 1.152 4.544 4.544l59.168 162.688h-27.296v59.168h45.504q25.024 0 37.536-19.328 13.664-19.328 4.544-43.232l-64.864-179.776q-6.816-18.208-23.904-30.144t-35.264-11.936zM562.624 8.832q-21.632 0-36.992 15.36t-15.36 36.992v178.624q0 21.632 15.36 36.992t36.992 15.36h95.584v-58.016h-89.888v-172.928q0 5.696-5.696 5.696v-58.016zM745.824 20.192l-21.632 54.624q6.816 2.272 15.936 7.392t27.872 26.176 27.872 47.232q23.904 68.256 12.512 136.544l-68.256-64.864-39.808 40.96 133.12 128.576 17.056-37.536q2.272-4.544 5.12-12.512t7.968-31.296 6.816-47.776-2.848-60.288-15.936-71.104q-9.088-23.904-22.752-44.384t-26.176-32.416-26.752-22.176-20.48-13.088-9.664-3.968zM833.408 395.648l121.728-128.576-42.112-39.808-121.728 128.576zM449.984 34.976h-335.648l9.088 37.536q13.664 50.048 40.384 90.464t55.168 63.712 63.712 39.264 59.744 22.176 48.352 9.664v50.048q-36.416 23.904-60.864 57.472t-32.992 65.984-10.816 66.56 4.544 59.168l-259.424 85.344 490.368 277.632 451.712-278.752-221.856-75.104q14.784-36.416 12.512-72.256t-11.936-64.864-27.872-55.168-36.416-44.384-36.416-30.72l-32.992 47.776q6.816 4.544 16.512 12.512t29.024 30.72 30.144 47.232 11.392 60.864-18.784 72.832l-15.936 29.568 166.112 56.896-316.288 195.712-345.888-196.832 187.744-61.44-9.088-28.448q-2.272-6.816-4.544-18.208t-3.424-39.808 5.12-53.472 27.296-55.168 56.32-49.504l15.936-7.968v-141.088h-42.656t-24.448-3.424-36.416-7.968-40.384-15.936-43.232-26.176-38.112-39.264-32.992-54.048h258.272v-59.168zM853.888 681.248h58.016v-250.304h-58.016v250.304z" />
<glyph unicode="&#xe93f;" glyph-name="class-alert" d="M579.2 777.6c28.8 3.2 54.4 6.4 80 3.2s54.4-9.6 83.2-22.4c28.8-12.8 57.6-28.8 80-54.4v-96h57.6v121.6l-9.6 9.6c-22.4 25.6-51.2 48-80 64-32 16-57.6 25.6-86.4 32s-57.6 6.4-86.4 6.4c-28.8-3.2-54.4-6.4-76.8-9.6-22.4-6.4-44.8-12.8-64-19.2s-35.2-12.8-41.6-16c-6.4 3.2-12.8 6.4-19.2 9.6-12.8 6.4-35.2 12.8-70.4 22.4-35.2 6.4-67.2 12.8-99.2 12.8-92.8 0-172.8-35.2-236.8-102.4l-6.4-12.8v-624l44.8 32c6.4 3.2 16 9.6 28.8 19.2 12.8 6.4 41.6 16 76.8 28.8 38.4 12.8 73.6 19.2 112 19.2 54.4 0 105.6-12.8 150.4-38.4l48-22.4 3.2 604.8c12.8 6.4 28.8 9.6 44.8 16s38.4 12.8 67.2 16zM64 211.2v492.8c51.2 51.2 112 76.8 182.4 76.8 51.2 0 105.6-12.8 156.8-38.4v-508.8c-41.6 16-89.6 25.6-134.4 25.6-70.4 0-137.6-16-204.8-48zM947.2 492.8c-51.2 51.2-108.8 73.6-182.4 73.6s-131.2-25.6-182.4-73.6c-51.2-48-73.6-108.8-73.6-182.4 0-70.4 25.6-131.2 73.6-182.4s108.8-73.6 182.4-73.6c73.6 0 131.2 25.6 182.4 73.6s73.6 108.8 73.6 182.4c0 70.4-25.6 131.2-73.6 182.4zM902.4 172.8c-38.4-38.4-83.2-57.6-137.6-57.6s-99.2 19.2-137.6 57.6c-38.4 38.4-57.6 83.2-57.6 137.6s19.2 99.2 57.6 137.6c38.4 38.4 83.2 57.6 137.6 57.6s99.2-19.2 137.6-57.6c38.4-38.4 57.6-83.2 57.6-137.6 0-51.2-19.2-99.2-57.6-137.6zM745.6 425.6h38.4v-169.6h-38.4v169.6zM787.2 211.2c0-12.371-10.029-22.4-22.4-22.4s-22.4 10.029-22.4 22.4c0 12.371 10.029 22.4 22.4 22.4s22.4-10.029 22.4-22.4z" />
<glyph unicode="&#xe940;" glyph-name="class-data" d="M503.616-8.832q-115.104 0-211.648 56.352t-152.896 152.896-56.352 210.432v31.168h389.696v389.696h31.168q155.872 0 275.2-103.712t140.896-258.4l-61.152-8.384q-16.8 123.52-108.512 210.432t-216.416 97.728v-388.48h-388.48q12-137.888 115.104-233.216t243.424-95.328v-61.152zM453.248 453.984h-453.248l2.4 33.568q7.2 83.936 34.176 152.288t61.76 110.912 80.352 73.728 82.72 46.176 77.344 23.392 56.352 9.6 26.976 1.184h31.168v-450.848zM67.136 515.136h324.96v326.144q-29.984-3.584-60.544-11.392t-75.552-30.56-80.352-56.352-65.952-92.928-42.56-134.88zM990.432-7.648h-464.032l10.784 39.584q15.584 56.352 53.952 86.336t82.72 38.368v3.584q-61.152 44.352-52.768 124.704l-154.688 50.368 290.176 165.472 267.392-165.472-130.688-44.352q8.384-38.368-6.592-72.544t-41.376-56.96v-3.584q59.968-13.184 94.72-52.16t41.952-76.128zM613.92 54.72h290.176q-31.168 40.768-91.136 45.568l-27.584 2.4-2.4 89.92 14.4 8.384q3.584 3.584 7.808 7.2t12 13.184 12.576 19.776 4.8 25.184-7.2 29.376l-16.8 31.168 70.752 23.968-125.888 77.952-137.888-77.952 77.952-25.184-9.6-29.984q-3.584-8.384-4.8-20.384t6.592-35.36 31.776-36.576l15.584-8.384v-97.12h-31.168q-8.384 0-19.776-1.184t-33.568-12.576-36.576-29.376zM910.080 338.88h61.152v-128.288h-61.152v128.288z" />
<glyph unicode="&#xe941;" glyph-name="class-import-manager" d="M877.6 838.56q-81.12 89.44-205.952 89.44-85.28 0-168.48-37.44-79.040 37.44-160.16 37.44-121.696 0-201.792-89.44-7.296-8.32-7.296-19.776v-474.272q0-16.64 14.56-24.96 6.24-3.136 13.536-3.136 8.32 0 15.616 5.216 8.32 5.216 26.016 15.072t64.992 24.96 93.088 15.072 89.44-15.616h-3.136v-142.496h-97.76l152.896-160.16 150.816 160.16h-93.6v142.496h-2.080q46.816 15.616 93.6 15.616 47.84 0 96.736-15.072t66.048-24.448 26.528-15.616q7.296-5.216 15.616-5.216 7.296 0 13.536 3.136 14.56 8.32 14.56 24.96v474.272q0 11.456-7.296 19.776zM190.080 392.352v416.032q62.4 63.456 152.896 63.456 64.48 0 131.040-30.176v-428.512q-54.080 19.776-112.32 19.776-86.336 0-171.616-40.576zM828.704 392.352q-86.336 40.576-176.8 40.576-61.376 0-119.616-20.8v428.512q70.72 31.2 139.36 31.2 94.656 0 157.056-63.456v-416.032zM899.424-32h-774.88v152.896h56.16v-95.68h662.528v95.68h56.16v-152.896z" />
<glyph unicode="&#xe942;" glyph-name="class-one" d="M582.843 779.673c28.981 3.22 54.742 6.44 80.503 3.22s54.742-9.66 83.723-22.541c28.981-12.881 57.962-28.981 80.503-54.742v-96.604h57.962v122.365l-9.66 9.66c-22.541 25.761-51.522 48.302-80.503 64.403-32.201 16.101-57.962 25.761-86.943 32.201s-57.962 6.44-86.943 6.44c-28.981-3.22-54.742-6.44-77.283-9.66-22.541-6.44-45.082-12.881-64.403-19.321s-35.421-12.881-41.862-16.101c0 0 0 0-3.22 0-3.22 3.22-12.881 6.44-19.321 9.66-12.881 6.44-35.421 12.881-70.843 22.541-35.421 6.44-67.623 12.881-99.824 12.881-93.384 0-173.887-35.421-238.289-103.044l-6.44-12.881v-627.925l45.082 32.201c6.44 3.22 16.101 9.66 28.981 19.321 12.881 6.44 41.862 16.101 77.283 28.981 38.642 12.881 74.063 19.321 112.704 19.321 54.742 0 106.264-12.881 151.346-38.642l51.522-25.761 3.22 611.824c12.881 6.44 28.981 9.66 45.082 16.101s38.642 12.881 67.623 16.101zM402.516 232.252c-41.862 16.101-90.164 25.761-135.245 25.761-70.843 0-138.465-16.101-206.088-48.302v495.899c51.522 51.522 112.704 77.283 183.547 77.283 51.522 0 106.264-12.881 157.786-38.642v-512zM949.937 493.082c-51.522 51.522-109.484 74.063-183.547 74.063s-132.025-25.761-183.547-74.063c-51.522-48.302-74.063-109.484-74.063-183.547 0-70.843 25.761-132.025 74.063-183.547s109.484-74.063 183.547-74.063c74.063 0 132.025 25.761 183.547 74.063s74.063 109.484 74.063 183.547c0 70.843-25.761 132.025-74.063 183.547zM904.855 171.069c-38.642-38.642-83.723-57.962-138.465-57.962s-99.824 19.321-138.465 57.962c-38.642 38.642-57.962 83.723-57.962 138.465s19.321 99.824 57.962 138.465c38.642 38.642 83.723 57.962 138.465 57.962s99.824-19.321 138.465-57.962c38.642-38.642 57.962-83.723 57.962-138.465 0-51.522-19.321-99.824-57.962-138.465zM840.453 328.855c-6.44 0-16.101 3.22-22.541 3.22-3.22 6.44-6.44 12.881-12.881 16.101-3.22 3.22-9.66 9.66-16.101 9.66 0 9.66-3.22 19.321-3.22 32.201-3.22 28.981-9.66 57.962-19.321 77.283-9.66-22.541-16.101-48.302-19.321-77.283 0-9.66-3.22-19.321-3.22-32.201-6.44-3.22-9.66-6.44-16.101-9.66s-9.66-9.66-9.66-16.101c-9.66 0-19.321-3.22-32.201-3.22-32.201-3.22-57.962-9.66-77.283-19.321 22.541-6.44 48.302-12.881 77.283-19.321 9.66 0 19.321-3.22 32.201-3.22 3.22-6.44 6.44-9.66 9.66-16.101 3.22-3.22 9.66-9.66 16.101-12.881 0-6.44 3.22-16.101 3.22-22.541 3.22-28.981 9.66-57.962 19.321-77.283 6.44 19.321 16.101 45.082 19.321 77.283 3.22 9.66 3.22 16.101 3.22 25.761 6.44 3.22 9.66 6.44 16.101 9.66 3.22 3.22 9.66 9.66 12.881 16.101 6.44 0 16.101 3.22 22.541 3.22 28.981 3.22 57.962 9.66 77.283 19.321-19.321 6.44-45.082 16.101-77.283 19.321z" />
<glyph unicode="&#xe943;" glyph-name="class-setting" d="M3.2 99.2v624l6.4 9.6c64 70.4 140.8 102.4 236.8 102.4 32 0 67.2-3.2 99.2-12.8 35.2-6.4 57.6-16 70.4-22.4s22.4-9.6 32-16l16-9.6v-643.2l-44.8 28.8c-48 25.6-96 38.4-150.4 38.4-35.2 0-73.6-6.4-112-19.2s-64-22.4-76.8-28.8c-12.8-6.4-25.6-12.8-28.8-19.2l-48-32zM60.8 700.8v-496c67.2 32 137.6 48 204.8 48 48 0 92.8-9.6 137.6-25.6v512c-51.2 28.8-105.6 38.4-156.8 38.4-73.6 0-134.4-25.6-185.6-76.8zM464 185.6h-57.6v592l16 9.6c3.2 0 9.6 3.2 16 6.4s22.4 9.6 41.6 16 41.6 12.8 64 19.2c22.4 3.2 48 6.4 76.8 9.6 28.8 0 57.6 0 86.4-6.4s54.4-16 86.4-32c28.8-16 57.6-38.4 80-64l9.6-9.6v-121.6h-57.6v96c-22.4 25.6-51.2 41.6-80 54.4s-57.6 19.2-83.2 22.4c-25.6 3.2-51.2 0-80-3.2s-51.2-9.6-67.2-16c-16-6.4-32-9.6-44.8-16l-6.4-556.8zM777.6 57.6h-19.2c-6.4 0-12.8 0-19.2 3.2-12.8 3.2-25.6 12.8-35.2 22.4s-12.8 25.6-16 38.4c-19.2-9.6-35.2-12.8-57.6-6.4-12.8 3.2-22.4 9.6-32 19.2l-12.8 12.8c-12.8 12.8-19.2 28.8-19.2 48 0 12.8 3.2 25.6 12.8 38.4-3.2 0-6.4 0-9.6 3.2-16 3.2-28.8 12.8-38.4 25.6s-12.8 25.6-12.8 44.8v16c0 19.2 9.6 35.2 22.4 48s25.6 19.2 41.6 19.2c-3.2 12.8-6.4 25.6-6.4 41.6 0 19.2 9.6 35.2 22.4 48l12.8 12.8c19.2 19.2 41.6 25.6 70.4 16 6.4-3.2 12.8-6.4 19.2-9.6 3.2 16 9.6 28.8 19.2 41.6 12.8 12.8 28.8 19.2 48 19.2h16c6.4 0 12.8 0 19.2-3.2 12.8-3.2 25.6-12.8 35.2-22.4s12.8-25.6 16-38.4c19.2 12.8 38.4 16 57.6 9.6 12.8-3.2 22.4-9.6 32-19.2l12.8-12.8c12.8-12.8 19.2-28.8 19.2-48 0-16-3.2-28.8-12.8-41.6 3.2 0 6.4 0 9.6-3.2 16-3.2 25.6-12.8 35.2-25.6s12.8-25.6 12.8-44.8v-16c0-19.2-9.6-35.2-22.4-48s-25.6-19.2-41.6-19.2c6.4-12.8 9.6-25.6 9.6-38.4 0-19.2-9.6-35.2-22.4-48l-12.8-12.8c-19.2-19.2-41.6-22.4-70.4-16-6.4 3.2-12.8 6.4-19.2 9.6-3.2-19.2-9.6-32-22.4-44.8-9.6-12.8-25.6-19.2-41.6-19.2v0zM688 201.6l19.2-12.8c6.4-3.2 12.8-6.4 22.4-9.6l19.2-6.4v-44.8c0-6.4 3.2-9.6 9.6-9.6 0 0 0 0 3.2 0h16c6.4 0 9.6 3.2 9.6 12.8v44.8l19.2 6.4c6.4 3.2 16 6.4 22.4 9.6l19.2 9.6 25.6-28.8c0 0 3.2-3.2 3.2-3.2 3.2 0 6.4 0 9.6 3.2l12.8 12.8c0 3.2 3.2 6.4 3.2 9.6s0 6.4-3.2 9.6l-19.2 19.2 12.8 19.2c3.2 6.4 6.4 12.8 9.6 22.4l6.4 19.2h44.8c3.2 0 6.4 0 9.6 3.2s3.2 6.4 3.2 9.6v16c0 6.4-3.2 9.6-9.6 9.6h-44.8l-6.4 22.4c-3.2 9.6-6.4 16-9.6 22.4l-9.6 19.2 28.8 25.6c3.2 3.2 3.2 6.4 3.2 9.6s0 6.4-3.2 9.6l-9.6 12.8c0 0-3.2 3.2-6.4 3.2s-6.4 0-9.6-3.2l-28.8-25.6-19.2 9.6c-6.4 3.2-16 6.4-22.4 9.6l-22.4 6.4v41.6c0 6.4 0 9.6-6.4 12.8h-19.2c-3.2 0-6.4 0-9.6-3.2s-3.2-6.4-3.2-9.6v-44.8l-19.2-6.4c-6.4-3.2-16-6.4-22.4-9.6l-19.2-9.6-32 32c0 0-3.2 3.2-3.2 3.2h-3.2c-3.2 0-3.2 0-6.4-3.2l-12.8-12.8c-3.2 0-3.2-3.2-3.2-6.4s0-6.4 3.2-9.6l25.6-25.6-9.6-19.2c-3.2-6.4-6.4-12.8-9.6-22.4l-6.4-19.2h-44.8c-3.2 0-6.4 0-9.6-3.2s-3.2-6.4-3.2-9.6v-16c0-6.4 3.2-9.6 9.6-9.6h48l6.4-19.2c3.2-6.4 6.4-16 9.6-22.4l9.6-19.2-25.6-25.6c-3.2-3.2-3.2-6.4-3.2-9.6s0-6.4 3.2-9.6l9.6-12.8c0 0 3.2-3.2 3.2-3.2 3.2 0 9.6 0 12.8 3.2l22.4 25.6zM771.2 208c-28.8 0-51.2 9.6-70.4 28.8s-28.8 44.8-28.8 70.4c0 28.8 9.6 51.2 28.8 70.4s44.8 28.8 70.4 28.8c28.8 0 51.2-9.6 70.4-28.8s28.8-44.8 28.8-70.4c0-28.8-9.6-51.2-28.8-70.4s-41.6-28.8-70.4-28.8zM771.2 348.8c-12.8 0-22.4-3.2-28.8-12.8-9.6-9.6-12.8-19.2-12.8-28.8s3.2-22.4 12.8-28.8c9.6-9.6 19.2-12.8 28.8-12.8s22.4 3.2 28.8 12.8c9.6 9.6 12.8 19.2 12.8 28.8s-3.2 22.4-12.8 28.8-16 12.8-28.8 12.8z" />
<glyph unicode="&#xe944;" glyph-name="class-type" d="M421.184 742.016h367.808v-147.584h-367.808v147.584zM72.672 960v-1024h878.688v1024h-878.688zM891.168 899.84v-754.944h-758.336v754.944h758.336zM132.832-3.84v88.544h758.336v-88.544h-758.336z" />
<glyph unicode="&#xe945;" glyph-name="classes" d="M448.416 64.288h-312.192l9.088 37.472q13.632 48.832 39.168 87.968t53.344 61.312 61.312 38.016 57.344 21.568 47.68 9.088v47.68q-36.32 22.72-59.616 55.072t-31.232 63.584-10.208 64.128 4.544 56.768l-253.152 82.88 476.8 270.176 438.208-270.176-214.56-72.672q13.632-47.68 10.208-86.848t-22.72-74.368-40.864-58.464-44.288-39.168l-32.928 47.68q5.664 4.544 15.328 11.904t27.808 29.504 28.96 45.408 10.784 58.464-18.176 69.248l-14.752 30.656 158.944 53.344-303.104 188.448-332.64-188.448 181.632-60.16-9.088-27.232q-2.272-6.816-5.12-17.6t-3.392-38.016 5.12-51.648 26.112-52.8 54.496-47.68l14.752-9.088v-137.376l-29.504 1.12q-5.664 0-19.296-1.12t-42.56-8.512-55.616-20.992-55.616-42.56-44.832-67.552h233.856v-59.040zM850.304 689.824h57.888v-241.824h-57.888v241.824zM484.768-64v349.664l7.936 7.936q51.072 57.888 129.408 57.888 57.888 0 108.992-28.384l14.752-7.936v-357.6l-43.136 22.72q-31.776 17.024-69.248 17.024-24.96 0-51.648-7.936t-37.472-13.632-14.176-9.088zM542.656 262.944v-224.768q45.408 18.176 90.816 18.176 27.232 0 54.496-7.936v231.584q-34.048 13.632-65.856 13.632-46.56 0-79.456-30.656zM957.024-64l-45.408 30.656q-45.408 30.656-105.568 30.656-39.744 0-74.912-17.024l-42.016-21.568v356.48l14.752 7.936q51.072 28.384 114.656 28.384 79.456 0 131.68-57.888l6.816-7.936v-349.664zM807.168 56.352q45.408 0 91.968-18.176v224.768q-32.928 30.656-80.608 30.656-34.048 0-71.52-14.752v-230.464q29.504 7.936 60.16 7.936z" />
<glyph unicode="&#xe946;" glyph-name="close-content" d="M75.232 604.064h780.352v-47.168h75.232v278.464h-930.816v-751.168h552.416v75.232h-477.184v444.64zM855.584 760.128v-80.832h-780.352v80.832h780.352zM123.52 413.184h403.072v-75.232h-403.104v75.232zM123.52 534.464h403.072v-75.232h-403.104v75.232zM123.52 291.936h403.072v-75.232h-403.104v75.232zM798.304 510.88q-93.184 0-158.88-66.24t-65.696-159.424 65.696-158.88 158.88-65.696 159.424 65.696 66.24 158.88-66.24 159.424-159.424 66.24zM963.36 285.184q0-47.168-25.824-87.584l-231.296 223.424q41.536 29.184 92.064 29.184 68.48 0 116.768-48.288t48.288-116.768zM896 152.704q-43.776-31.424-97.696-31.424-67.36 0-115.648 48.288t-48.288 115.648q0 51.648 29.184 93.184z" />
<glyph unicode="&#xe947;" glyph-name="close-folder" d="M884.768 435.648l-2.24-1.12-163.936-335.712h-623.168l229.056 469.344h312.128l-2.24 5.6q-10.112 30.304-12.352 62.88v3.36h-320q-22.464 0-32.576-20.224l-197.6-404.224v582.752h180.768l53.888-87.584v-1.12l29.184-15.712h290.816l1.12 2.24q7.872 33.696 25.824 62.88l3.36 6.752h-299.776l-53.888 87.584h-1.12l-29.184 16.832h-230.176q-17.952 0-30.304-12.928t-12.352-30.88v-755.648q0-2.24 1.12-4.48v-1.12q-1.12-12.352 5.6-22.464 10.112-16.832 30.304-16.832h702.88q22.464 0 32.576 20.224l217.824 444.64-13.472-11.232q-40.416-33.696-92.064-43.776zM836.48 461.472q77.472 0 132.48 55.008t55.008 132.48-55.008 131.936-132.48 54.464-131.936-54.464-54.464-131.936 54.464-132.48 131.936-55.008zM852.224 648.992l62.88-64-15.712-15.712-62.88 64-62.88-62.88-15.712 15.712 62.88 62.88-62.88 62.88 15.712 15.712 62.88-64 64 64 14.592-15.712z" />
<glyph unicode="&#xe948;" glyph-name="close-o, delete" d="M960 831.84l-64.16 64.16-383.84-385.024-383.84 385.024-64.16-64.16 385.024-383.84-385.024-383.84 64.16-64.16 383.84 385.024 383.84-385.024 64.16 64.16-385.024 383.84z" />
<glyph unicode="&#xe949;" glyph-name="close" d="M942.080 928h-860.16q-20.16 0-35.040-14.88t-14.88-35.040v-860.16q0-20.16 14.88-35.040t35.040-14.88h860.16q20.16 0 35.040 14.88t14.88 35.040v860.16q0 20.16-14.88 35.040t-35.040 14.88zM831.68 294.4l-165.12-166.080-154.56 154.56-153.6-154.56-166.080 166.080 154.56 153.6-154.56 153.6 166.080 166.080 153.6-154.56 154.56 154.56 165.12-166.080-154.56-153.6z" />
<glyph unicode="&#xe94a;" glyph-name="cloud-o, cloud-line" d="M1020.864 314.4q-7.296 92.896-63.68 147.168t-131.52 67.84q-7.296 52.192-29.216 97.088t-44.352 70.464-50.112 45.92-41.216 27.136-24 9.92q-41.76 19.84-84.544 19.84-36.544 0-72.032-13.056t-62.624-35.488-45.408-40.704-32.896-38.112q-29.216 7.296-54.272 7.296-67.84 0-110.112-44.896t-56.896-105.44q-117.952-101.248-109.6-213.984 2.080-36.544 18.272-71.488t35.488-58.464 42.784-44.352 34.432-28.192l17.216-11.488 10.432-5.216h696.224l8.352 3.136q48 19.84 81.408 50.112t47.488 61.056 18.784 56.896 1.568 46.976zM191.008 179.744q-18.784 12.512-37.056 28.704t-39.68 49.056-23.488 64.192q-5.216 75.168 91.872 153.44l12.512 10.432 2.080 15.648q1.056 5.216 2.624 12t8.352 22.976 15.648 28.192 25.056 21.92 36 9.92q24 0 55.328-12.512l33.408-13.568 17.76 31.328q2.080 2.080 8.864 12t22.432 28.192 33.92 34.432 44.352 28.192 51.136 12 51.136-12.512l4.16-2.080q6.272-2.080 15.648-6.272t31.328-21.408 39.68-38.624 33.408-61.056 18.784-86.624l3.136-37.568 38.624-1.056q6.272 0 16.704-1.056t33.92-9.408 42.784-21.92 36-42.784 19.84-68.896q-1.056-2.080 0.512-9.92t-3.136-22.432-12.512-30.272-27.648-32.896-48-30.784h-655.52v1.056z" />
<glyph unicode="&#xe94b;" glyph-name="cloud" d="M887.744 107.328h-743.52q-6.624 2.656-16.544 9.92t-35.712 30.432-44.992 47.616-33.088 62.848-10.592 76.064 31.744 85.344 85.344 92.608q0 5.28 1.984 11.904t8.608 26.464 15.872 36.384 26.464 33.728 39.040 26.464 54.912 7.936 71.456-15.872q2.656 3.968 7.936 11.232t21.184 27.776 33.728 37.696 44.32 35.712 53.568 27.776 62.176 7.936 68.128-17.184q6.624-2.656 18.528-7.936t41.664-26.464 52.928-48.96 44.992-79.392 25.792-112.448q3.968 0 11.232-0.672t27.776-4.64 39.040-11.232 42.336-21.824 41.024-35.072 31.104-52.928 16.544-72.096q1.312 0 1.312-6.624t-0.672-19.168-4.64-27.776-13.216-33.728-23.168-36.384-38.368-35.072-56.224-30.432z" />
<glyph unicode="&#xe94c;" glyph-name="club, cruiser-central" d="M392.448 617.248h40.192q17.984-1.056 27.52 10.592 7.392 10.592 10.592 32.8-15.872 17.984-23.264 43.36-8.448 4.224-12.704 15.872-4.224 12.704-4.224 31.744v4.224l3.168 2.112 2.112 1.056q-5.28 40.192-0.544 61.888t20.64 36.512q24.32 22.208 65.056 22.752t66.112-19.584q33.856-27.52 24.32-100.48l6.336-4.224v-4.224q1.056-19.040-4.224-31.744-4.224-11.648-11.648-15.872-7.392-23.264-21.152-41.248 4.224-27.52 14.816-39.136 8.448-5.28 25.376-4.224h35.968q25.376-25.376 40.192-77.76t10.592-94.688q-26.432-20.096-107.904-28.576t-160.8-0.544-99.424 29.088q4.224 123.776 52.896 170.304zM411.52 94.688l-37.024 159.744 157.632-2.112-37.024-47.616q33.856-24.32 73.536-17.44t66.112 40.736q10.592 14.816 16.928 31.744l22.208-8.448q-5.28-48.672-33.856-86.752-37.024-48.672-94.144-57.12t-103.68 27.52zM262.336 833.056l3.168-51.84q-56.064-10.592-92.032-59.776t-31.744-112.672q3.168-48.672 30.688-87.808l21.152 10.592q-6.336 16.928-7.392 35.968-3.168 44.416 21.696 79.328t64 43.36l3.168-62.4 114.24 118.464zM947.84 675.424l-47.616-3.168q-9.536 61.344-54.464 101.024t-102.080 35.424q-44.416-4.224-80.384-33.856l9.536-23.264q15.872 7.392 32.8 8.448 41.248 3.168 72.992-23.808t39.136-70.336l-56.064-4.224 106.848-124.832zM241.184 268.16q-12.704-29.632-38.080-47.616 5.28-20.096 12.704-37.024 9.536 0 25.92-1.6t37.024-5.824 22.752-10.592q16.928-22.208 22.208-61.888t0-59.776q-56.064-28.576-159.2-28.576t-159.2 28.576q-5.28 20.096-0.544 59.776t21.696 61.888q5.28 14.816 86.752 17.984 6.336 21.152 8.448 37.024-23.264 17.984-34.912 47.616-3.168 1.056-16.928 1.056t-16.928 1.056q-7.392 49.728 1.6 108.416t26.976 74.592q26.432 24.32 79.328 25.376t80.384-21.152q20.096-14.816 31.2-77.216t3.712-107.904q-2.112-1.056-17.44-1.6t-17.44-2.656zM936.192 281.92q3.168 1.056 17.984 1.6t16.928 2.656q7.392 45.472-3.712 107.36t-30.144 76.704q-27.52 22.208-80.928 21.152t-79.872-25.376q-17.984-15.872-26.976-74.592t-1.6-108.416q4.224-1.056 17.44-1.056h17.44q10.592-30.688 34.912-48.672-3.168-15.872-9.536-37.024-10.592 0-26.432-1.6t-36.48-5.824-22.752-10.592q-16.928-22.208-22.208-61.888t0-58.72q56.064-29.632 159.2-29.632t159.2 29.632q5.28 19.040 0.544 58.72t-21.696 61.888q-6.336 14.816-86.752 17.984-7.392 17.984-11.648 37.024 24.32 17.984 37.024 48.672z" />
<glyph unicode="&#xe94d;" glyph-name="code" d="M707.552 960h-628.8v-1024h866.464v791.776zM873.248 699.232h-200.992v191.488h6.784zM149.376 5.248v885.472h453.6v-260.768h271.616v-624.736h-725.216zM268.896 278.24l156.192-97.792v69.248l-99.136 59.744 99.136 59.744v67.904l-156.192-96.416v-62.464zM454.944 132.928h38.016l76.064 430.528h-36.672zM594.848 369.216l100.512-59.744-100.512-59.744v-69.248l154.816 97.792v62.464l-154.816 96.416v-67.904z" />
<glyph unicode="&#xe94e;" glyph-name="coffee, coffee-o" d="M956 430.592q-32.608 29.216-88.8 29.216-21.344 0-44.96-4.48l5.632 62.944q0 32.608-25.856 56.192t-61.824 23.616h-200.064q-6.752 5.632-7.872 7.872 1.12 5.632 13.472 16.864 40.48 35.968 33.728 82.048-3.36 20.224-16.288 39.904t-30.336 32.608-28.672 20.224-21.344 11.808l-6.752 3.36-35.968-74.176 7.872-3.36q17.984-8.992 33.728-21.92t15.744-20.8q0-2.24-6.752-8.992-43.84-39.328-39.328-85.44h-349.568q-37.088 0-62.944-24.736-23.616-23.616-23.616-58.464l40.48-440.608q0-33.728 44.384-85.984t80.384-52.256h482.208q29.216 0 67.456 38.208 22.496 21.344 39.904 49.472t17.408 46.080q30.336 12.352 57.888 29.216t57.312 42.72 52.256 62.944 31.488 80.928q22.496 98.912-30.336 144.992zM714.336 168.672h-472.096v-82.048h464.224l-1.12-7.872q-2.24-8.992-20.224-31.488t-28.096-30.336h-470.976q-10.112 6.752-28.096 29.792t-20.224 30.912l-40.48 437.248q2.24 1.12 4.48 1.12h417.024l5.632-2.24 1.12 2.24h214.688q2.24 0 4.48-1.12zM906.528 302.432q-17.984-84.288-111.264-137.12l19.104 204.576q28.096 7.872 53.952 7.872 24.736 0 33.728-8.992 15.744-13.472 4.48-66.304zM745.792 522.752l1.12 1.12q1.12-1.12 4.48-2.24zM367.008 839.712q0-3.36-6.752-8.992-47.2-42.72-39.328-89.92 3.36-22.496 19.104-40.48t26.4-24.736 19.68-11.232l7.872-3.36 33.728 74.176-7.872 3.36q-15.744 7.872-17.984 14.624 1.12 5.632 13.472 16.864 40.48 35.968 33.728 82.048-3.36 20.224-16.288 39.328t-30.912 32.608-28.672 20.8-20.8 11.808l-7.872 3.36-34.848-74.176 7.872-3.36q16.864-8.992 32.608-22.496t16.864-20.224z" />
<glyph unicode="&#xe94f;" glyph-name="color" d="M513.12 946.112q-6.656 0-17.792-0.544t-46.112-4.992-68.896-12.224-79.456-24.992-85.024-40.576-79.456-61.664-68.352-85.568-46.112-114.464-17.792-146.112q0-6.656 0.544-17.216t4.992-44.448 12.224-67.232 24.448-78.336 39.456-84.448 60-80.576 82.784-71.104 111.136-50.56 142.24-24.992q3.328 0 10.016 0.544t23.328 4.448 30.016 10.016 24.992 19.456 15.008 32.224q0 2.208 0.544 4.992t0 13.344-3.904 21.664-13.344 28.352-24.448 35.008q-1.12 2.208-3.904 6.656t-7.232 16.128-6.112 22.784 1.12 24.448 12.224 22.24 30.016 15.008 51.68 6.112q8.896-1.12 22.784-2.784t55.552-1.12 78.912 6.112 83.328 23.328 78.912 46.688 55.552 80.576 22.784 120.576l-0.544 15.008t-4.992 41.12-12.768 60-26.112 71.104-42.24 74.464-63.328 71.68-87.776 60.576-118.336 42.24-150.56 17.216zM194.752 424.928q-36.128 0-62.24 25.568t-26.112 62.24 26.112 62.784 62.24 26.112 62.24-26.112 26.112-62.784-26.112-62.24-62.24-25.568zM371.968 648.288q-36.672 0-62.784 25.568t-26.112 62.24 26.112 62.784 62.784 26.112 62.24-26.112 25.568-62.784-25.568-62.24-62.24-25.568zM652 648.288q-36.672 0-62.24 25.568t-25.568 62.24 25.568 62.784 62.24 26.112 62.784-26.112 26.112-62.784-26.112-62.24-62.784-25.568zM829.248 424.928q-36.128 0-62.24 25.568t-26.112 62.24 26.112 62.784 62.24 26.112 62.24-26.112 26.112-62.784-26.112-62.24-62.24-25.568z" />
<glyph unicode="&#xe950;" glyph-name="committee" d="M904.736 452.512q-38.272 0-68.64-21.952t-42.752-56.832l-100.16 34.88q1.12 10.112 1.12 20.256 0 45.024-21.376 84.384l84.384 73.152q30.368-20.256 65.28-20.256 49.504 0 84.384 34.88t34.88 84.384-34.88 84.384-84.384 34.88-84.384-34.88-34.88-84.384q0-27.008 13.504-52.896l-81.024-69.76q-41.632 37.12-95.648 46.144v114.784q39.392 8.992 65.28 41.088t25.888 73.696q0 49.504-34.88 84.384t-83.84 34.88-84.384-34.88-35.456-84.384q0-39.392 24.192-70.88t61.312-42.752v-117.024q-55.136-11.264-95.648-50.624l-83.264 74.272q13.504 25.888 13.504 54.016 0 49.504-34.88 84.384t-83.84 34.88-83.84-34.88-34.88-84.384 34.88-84.384 84.384-34.88q33.76 0 64.128 19.136l88.896-79.904q-18.016-37.12-18.016-76.512 0-8.992 1.12-19.136l-100.16-30.368q-12.384 36-42.752 57.952t-68.64 21.952q-49.504 0-84.384-34.88t-34.88-83.84 34.88-83.84 84.384-34.88q42.752 0 75.392 27.008t41.632 67.52l111.392 33.76q19.136-39.392 54.016-66.4l-59.648-108.032-5.632 1.12q-49.504 0-84.384-34.88t-34.88-84.384 34.88-84.384 83.84-34.88 84.384 34.88 35.456 84.384q0 64.128-54.016 99.040l55.136 99.040q25.888-7.872 55.136-7.872t55.136 7.872l54.016-100.16q-51.776-34.88-51.776-97.888 0-49.504 34.88-84.384t83.84-34.88 83.84 34.88 34.88 84.384-34.88 84.384-84.384 34.88q-1.12 0-3.936-0.576t-3.936-0.576l-57.376 109.152q34.88 25.888 52.896 65.28l113.664-39.392q7.872-41.632 40.512-69.216t75.392-27.584q49.504 0 84.384 34.88t34.88 84.384-34.88 84.384-84.384 34.88zM194.688 628.032q-23.616 0-40.512 16.864t-16.864 40.512 16.864 40.512 40.512 16.864 39.936-16.864 16.32-40.512-16.32-40.512-39.936-16.864zM119.296 283.712q-23.616 0-39.936 16.864t-16.32 40.512 16.32 39.936 39.936 16.32 40.512-16.32 16.864-39.936-16.864-40.512-40.512-16.864zM336.448 0.128q-23.616 0-40.512 16.864t-16.864 40.512 16.864 40.512 40.512 16.864 40.512-16.864 16.864-40.512-16.864-40.512-40.512-16.864zM744.928 57.536q0-23.616-16.864-40.512t-40.512-16.864-40.512 16.864-16.864 40.512 16.864 40.512 40.512 16.864 40.512-16.864 16.864-40.512zM822.592 742.816q23.616 0 39.936-16.864t16.32-40.512-16.32-40.512-39.936-16.864-40.512 16.864-16.864 40.512 16.864 40.512 40.512 16.864zM454.624 838.464q0 23.616 16.864 40.512t40.512 16.864 40.512-16.864 16.864-40.512-16.864-40.512-40.512-16.864-40.512 16.864-16.864 40.512zM512 308.48q-49.504 0-84.96 35.456t-35.456 84.96 35.456 84.96 84.96 35.456 84.96-35.456 35.456-84.96-35.456-84.96-84.96-35.456zM904.736 275.84q-23.616 0-40.512 16.864t-16.864 40.512 16.864 40.512 40.512 16.864 40.512-16.864 16.864-40.512-16.864-40.512-40.512-16.864z" />
<glyph unicode="&#xe951;" glyph-name="communication" horiz-adv-x="1152" d="M1026.016 100.864q59.136 42.432 92.576 101.568t33.44 126.016q0 80.992-49.504 150.432t-134.368 110.56q-41.152 126.016-172.928 205.728t-302.784 79.712q-133.728 0-246.848-51.424t-179.36-138.848-66.208-190.272q0-77.152 38.56-147.872t109.28-123.424q-10.272-54.016-50.144-86.144l-83.584-68.128 108 5.152q118.272 5.152 222.432 57.856 74.56-19.296 154.272-18.016 113.152-92.576 272.576-92.576 99.008 0 183.872 38.56 51.424-21.856 154.272-37.28-32.128 10.272-83.584 78.432zM335.584 207.584l-12.864-6.432q-51.424-28.288-120.864-43.712 15.424 36 20.576 78.432l1.28 20.576-16.704 11.584q-65.568 44.992-100.288 103.488t-34.72 122.784q0 83.584 56.576 154.944t152.992 112.512 210.848 41.152q123.424 0 226.944-49.504t154.944-130.496q-51.424 11.584-102.848 11.584-158.144 0-269.376-89.344t-111.2-216.64q0-73.28 41.152-138.848-43.712 3.872-82.272 14.144zM572.8 264.128q-19.936 0-34.080 14.144t-14.144 34.080 14.144 33.44 34.080 13.504 33.44-13.504 13.504-33.44-13.504-34.080-33.44-14.144zM770.784 264.128q-19.936 0-33.44 14.144t-13.504 34.080 13.504 33.44 33.44 13.504 34.080-13.504 14.144-33.44-14.144-34.080-34.080-14.144zM953.376 264.128q-19.936 0-34.080 14.144t-14.144 34.080 14.144 33.44 34.080 13.504 33.44-13.504 13.504-33.44-13.504-34.080-33.44-14.144z" />
<glyph unicode="&#xe952;" glyph-name="compose-email" d="M811.904 37.92h-722.336q-36.544 0-63.040 25.92t-26.528 63.616v553.824q0 36.544 26.528 63.040t63.040 26.528h573.856v-61.28h-573.856q-11.776 0-20.608-8.256t-8.832-20.032v-553.824q0-11.776 8.832-20.608t20.608-8.832h722.336q11.776 0 20.032 8.832t8.256 20.608v379.424h60.096v-379.424q0-37.696-25.92-63.616t-62.464-25.92zM194.432 554.048l272.192-179.104-32.992-50.656-272.192 179.104zM386.496 320.736l42.432 177.92 425.376 340.544q22.4 18.848 55.392 12.384t55.392-33.568l34.176-42.432q24.736-31.808 21.216-67.168-3.52-28.288-24.736-45.952l-425.376-340.544zM483.136 464.512l-20.032-83.68 86.016 1.184 408.896 327.584q1.184 1.184 2.368 5.888 1.184 10.592-8.256 21.216l-34.176 43.584q-7.072 8.256-14.72 11.2t-11.2 0.576zM848.416 787.36l103.712-128.448-47.136-37.696-103.712 128.448zM516.128 529.312l103.712-129.632-47.136-37.696-103.712 129.632z" />
<glyph unicode="&#xe953;" glyph-name="computer-one, laptop" horiz-adv-x="1152" d="M1030.752 247.168q-1.248 1.248-1.888 3.168t-1.888 1.888q6.304 16.416 6.304 29.056v531.808q0 32.832-23.36 56.224t-57.472 23.36h-752.864q-34.112 0-57.472-23.36t-23.36-56.224v-530.528q0-15.168 6.304-29.056 0-1.248-1.248-3.168t-1.248-3.168l-122.528-154.112v-16.416q0-30.304 24-51.776t59.36-21.472h985.28q35.36 0 59.36 21.472t24 51.776v16.416zM210.944 293.888v506.528h730.112v-506.528h-730.112zM203.36 201.664h745.28l83.36-106.112h-912z" />
<glyph unicode="&#xe954;" glyph-name="computer-two, computer-three, desktop" d="M955.52 912.832h-887.008q-28.064 0-48.288-19.648t-20.224-47.712v-592.832q0-28.064 20.224-47.712t48.288-19.648h360.416l-95.424-92.064v-110.048h357.056v110.048l-94.304 92.064h359.296q28.064 0 48.288 19.648t20.224 47.712v592.832q0 28.064-20.224 47.712t-48.288 19.648zM81.952 311.008h860.064v-43.776h-860.064v43.776zM942.048 394.112h-860.064v436.768h860.064v-436.768zM422.176 65.12l89.824 86.464 89.824-86.464h-179.648z" />
<glyph unicode="&#xe955;" glyph-name="contact-list" d="M360.96 392.928q-89.408 0-152.672 63.808t-63.264 153.216 63.264 152.672 152.672 63.264 153.216-63.264 63.808-152.672-63.808-153.216-153.216-63.808zM361.504 766.976q-64.896 0-111.232-46.336t-46.336-111.232 46.336-110.688 111.232-45.792 110.688 45.792 45.792 110.688-45.792 111.232-110.688 46.336zM718.656 70.144h-58.88q0 7.648-1.088 18.528t-7.072 39.264-16.352 55.072-32.704 60.512-52.896 61.056-79.072 51.808-109.6 36.544q-59.968-13.088-109.6-37.088t-80.16-51.264-52.896-61.056-33.248-60.512-16.896-55.072-7.104-39.264-1.088-18.528h-59.968q0 6.528 1.088 19.072t8.736 45.792 20.16 65.984 39.264 73.056 62.72 73.6 93.792 62.144 129.76 41.984q5.44 1.088 10.912 0 71.968-13.088 129.76-41.984t93.792-62.144 62.144-73.6 38.72-73.056 19.616-65.984 7.648-46.336 0.544-18.528zM641.216 679.744h382.784v-59.968h-382.784v59.968zM641.216 484.544h382.784v-59.968h-382.784v59.968zM792.8 289.344h231.2v-59.968h-231.2v59.968z" />
<glyph unicode="&#xe956;" glyph-name="contacts-manager" d="M574.56 84.288h-501.568q-30.112 0-51.552 21.44t-21.44 51.552v627.84q0 30.112 21.44 51.552t51.552 21.44h806.24q30.112 0 51.552-21.44t21.44-51.552v-266.432h-59.072v266.432q0 5.792-4.064 9.856t-9.856 4.064h-806.24q-5.792 0-9.856-4.064t-4.064-9.856v-627.84q0-5.792 4.064-9.856t9.856-4.064h501.568v-59.072zM507.36 244.128v74.144q-2.304 3.488-7.52 8.672t-31.84 18.528-64.864 22.592q-19.68 4.64-28.384 16.224t-6.944 26.048 6.368 25.472 10.432 20.256q9.28 12.736 17.952 34.176t12.736 49.824 0 53.856-26.048 46.336-60.224 28.96q-11.584 2.304-25.472 0-42.848-5.792-63.136-34.176t-19.104-64.288 8.672-66.592 17.952-48.064q5.792-8.096 9.856-20.256t5.216-26.656-5.792-26.048-23.168-15.072q-41.696-9.28-67.2-22.016t-30.112-19.68l-5.792-8.096v-74.144h376.48zM507.36 659.968h349.824v-60.224h-349.824v60.224zM507.36 546.464h349.824v-59.072h-349.824v59.072zM796.96 37.952h-16.224q-10.432 1.152-18.528 3.488-18.528 4.64-31.264 19.68t-15.072 34.752q-24.32-12.736-49.824-4.64-17.376 4.64-28.96 17.376l-11.584 11.584q-18.528 19.68-18.528 47.488 1.152 17.376 9.28 32.448-3.488 1.152-5.792 1.152-22.016 6.944-35.328 25.472t-13.312 40.544l1.152 16.224q0 26.656 20.864 46.336 15.072 15.072 35.904 17.376-8.096 16.224-8.096 34.752 1.152 26.656 20.864 46.336l11.584 10.432q27.808 26.656 64.864 16.224 8.096-2.304 15.072-6.944 3.488 20.864 18.528 34.752 19.68 19.68 47.488 19.68l16.224-1.152q9.28 0 17.376-2.304 18.528-5.792 31.264-20.256t15.072-34.176q25.472 13.888 52.128 5.792 17.376-4.64 30.112-17.376l10.432-10.432q18.528-20.864 18.528-48.64-1.152-18.528-11.584-34.752 3.488 0 6.944-1.152 20.864-5.792 34.176-24.32t13.312-41.696l-1.152-15.072q0-27.808-19.68-46.336-16.224-15.072-35.904-18.528 8.096-15.072 6.944-32.448 0-27.808-19.68-47.488l-11.584-10.432q-27.808-26.656-64.864-16.224-8.096 2.304-15.072 6.944-4.64-23.168-23.168-38.816t-42.848-15.648zM715.872 174.624l19.68-10.432q8.096-4.64 18.528-9.28l20.864-6.944-1.152-42.848q0-5.792 5.792-6.944l17.376-1.152q6.944 0 6.944 8.096l1.152 42.848 20.864 5.792q10.432 3.488 20.864 8.096l19.68 9.28 25.472-26.656 2.304-2.304q5.792 0 8.096 2.304l10.432 10.432q2.304 2.304 2.304 5.792t-2.304 5.792l-24.32 26.656 10.432 18.528q4.64 9.28 9.28 19.68l6.944 20.864 41.696-1.152q2.304 0 4.64 2.304t2.304 4.64l1.152 16.224q0 5.792-5.792 6.944l-44.032 1.152-5.792 22.016q-2.304 10.432-6.944 20.864l-10.432 18.528 26.656 26.656q2.304 2.304 2.304 5.216t-2.304 5.216l-9.28 10.432q-2.304 2.304-3.488 2.304-5.792 1.152-6.944-1.152l-26.656-26.656-19.68 11.584-20.864 9.28-20.864 6.944 1.152 40.544q0 5.792-5.792 8.096h-16.224q-3.488 0-5.792-2.304t-2.304-4.64l-1.152-41.696-20.864-5.792q-10.432-3.488-19.68-8.096l-19.68-10.432-25.472 26.656-2.304 2.304q-5.792 0-8.096-2.304l-10.432-10.432q-2.304-2.304-2.304-5.792t1.152-5.792l25.472-25.472-10.432-19.68q-5.792-9.28-9.28-19.68l-6.944-20.864-41.696 1.152q-3.488 0-5.792-2.304t-2.304-5.792v-15.072q-1.152-5.792 4.64-6.944l45.184-1.152 5.792-22.016q3.488-10.432 8.096-19.68l9.28-19.68-25.472-24.32q-2.304-2.304-2.304-5.792t2.304-5.792l9.28-10.432q2.304-2.304 3.488-2.304 4.64 0 6.944 2.304zM792.896 175.776q-38.816 0-66.592 27.232t-27.808 66.592 27.808 67.2 66.592 27.808 66.592-27.808 27.808-67.2-27.808-66.592-66.592-27.232zM792.896 305.504q-14.496 0-24.896-10.432t-10.432-24.896 10.432-24.896 24.896-10.432 24.896 10.432 10.432 24.896-10.432 24.896-24.896 10.432z" />
</font>
</defs>
</svg>
